<svg width="24" height="24" viewBox="0 0 24 24" fill="none" xmlns="http://www.w3.org/2000/svg">
<path d="M16.2435 21.1976C15.0158 22.253 13.6754 22.0864 12.3851 21.5864C11.0197 21.0754 9.76695 21.0532 8.32633 21.5864C6.52242 22.2752 5.57036 22.0752 4.49303 21.1976C-1.62021 15.6094 -0.71826 7.09936 6.22177 6.78828C7.91293 6.86605 9.09048 7.6104 10.0801 7.67706C11.5583 7.41043 12.9739 6.64386 14.5523 6.74385C16.4439 6.87716 17.872 7.54374 18.8115 8.74359C14.9031 10.8211 15.8301 15.3872 19.4128 16.6648C18.6988 18.3313 17.7718 19.9866 16.231 21.2087L16.2435 21.1976ZM9.95486 6.72163C9.76695 4.24416 12.0344 2.19997 14.64 2C15.0033 4.8663 11.7087 6.99937 9.95486 6.72163Z" fill="black"/>
</svg>
