<svg width="245" height="332" viewBox="0 0 245 332" fill="none" xmlns="http://www.w3.org/2000/svg">
<path d="M233.179 202.714C227.403 192.106 220.012 184.969 211.982 182.248C203.952 179.526 195.662 181.347 188.207 187.47L183.492 132.138L200.487 155.565L200.744 154.61C201.001 153.664 207.008 131.246 203.487 115.012C202.118 108.693 199.472 104.177 195.621 101.625L195.301 101.411L183.832 126.578L184.167 94.4497L166.852 91.7723L166.765 93.5573L183.555 96.2346L163.487 153.798L164.303 154.762L183.264 100.322L182.875 127.167L182.39 129.72L182.254 130.46L177.131 157.903L130.974 172.486L123.264 174.914L122.778 175.074L122.292 175.226L112.275 178.385L111.086 178.76L109.901 179.135L86.1815 186.623L65.3269 193.191H65.2977L64.3557 193.512L42.394 188.158L0 240.108L0.534108 241.589L42.6222 189.943L63.8702 195.181V197.332L50.0415 237.332C44.3861 231.321 37.6985 229.488 31.335 232.205C24.9715 234.922 19.4084 241.986 15.7739 251.964C12.1394 261.942 10.7056 274.087 11.7633 285.936C12.8209 297.785 16.2909 308.452 21.4695 315.772C26.648 323.092 33.1475 326.519 39.6498 325.356C46.1521 324.194 52.1704 318.529 56.4844 309.512C60.7983 300.494 63.0848 288.799 62.8802 276.797C62.6756 264.795 59.9952 253.386 55.3826 244.882L63.8702 228.818V239.153L63.8945 239.92L64.38 256.734L88.1238 267.827L92.9793 270.094L94.1544 270.638L100.112 273.423L122.016 283.651L122.501 283.883L126.871 245.721L134.485 246.426L142.322 247.149L160.982 248.845H161.346L176.267 168.202L176.587 166.471L182.681 133.807L187.318 188.247C179.601 195.027 173.257 206.145 169.205 219.992C165.154 233.839 163.604 249.696 164.781 265.269C165.957 280.841 169.8 295.322 175.751 306.615C181.702 317.908 189.454 325.428 197.885 328.086C206.316 330.744 214.988 328.403 222.647 321.401C230.306 314.399 236.554 303.099 240.487 289.137C244.42 275.176 245.834 259.276 244.525 243.739C243.216 228.202 239.25 213.834 233.203 202.714H233.179ZM195.607 103.535C199.006 105.962 201.361 110.05 202.589 115.708C205.546 129.354 201.234 148.381 200.127 152.87L183.531 129.996L195.607 103.535ZM37.1645 289.005C35.8042 289.006 34.4867 288.131 33.4403 286.533L33.183 286.105C32.1949 284.398 31.5616 282.111 31.3922 279.639C31.2228 277.166 31.5278 274.662 32.2548 272.559C32.9818 270.455 34.0852 268.883 35.3749 268.114C36.6646 267.345 38.0599 267.426 39.3204 268.345C39.4709 268.452 39.6215 268.577 39.7671 268.711C39.9128 268.845 40.0536 268.996 40.1944 269.148C40.4115 269.392 40.6191 269.664 40.8159 269.96C40.943 270.144 41.0645 270.341 41.1801 270.549C41.2995 270.752 41.4129 270.967 41.52 271.192C42.4705 273.157 42.9896 275.702 42.9767 278.331C42.9715 281.161 42.3574 283.872 41.2684 285.872C40.1794 287.872 38.704 288.998 37.1645 289.005ZM63.8702 226.194L54.6786 243.642L41.4957 268.675C41.2488 268.296 40.9875 267.951 40.714 267.64L50.8718 238.26L63.8702 200.652V226.194ZM121.768 281.66L101.18 272.049L88.9686 266.346L65.3269 255.279L64.8899 239.965L102.375 243.427L122.768 245.311L125.89 245.605L121.768 281.66ZM175.427 167.069L175.068 169.014L170.751 192.352L160.642 247.06L142.555 245.391L134.64 244.659L127.056 243.963L124.089 243.686L103.346 241.705L64.8413 238.135V195.155L65.3269 195.003L86.5166 188.318L112.217 180.206L113.397 179.831L114.587 179.456L122.205 177.055L122.691 176.895L123.176 176.743L133.101 173.611L176.748 159.84L175.427 167.069ZM204.925 268.648C203.418 268.648 201.945 267.827 200.692 266.288C199.439 264.75 198.463 262.563 197.886 260.004C197.309 257.446 197.159 254.63 197.453 251.914C197.746 249.198 198.472 246.703 199.538 244.744C200.603 242.786 201.96 241.452 203.438 240.912C204.916 240.372 206.448 240.649 207.84 241.709C209.232 242.769 210.422 244.563 211.259 246.866C212.096 249.169 212.543 251.876 212.543 254.646C212.54 258.358 211.737 261.917 210.309 264.542C208.881 267.167 206.944 268.644 204.925 268.648Z" fill="url(#paint0_linear_18_1787)"/>
<path d="M90.1445 316.671L74.0435 291.388L89.5522 269.21L90.1494 270.62L75.5827 291.459L90.7757 315.314L90.1445 316.671Z" fill="black"/>
<path d="M149.348 322.579H128.172L132.12 287.202L133.072 287.559L129.362 320.794H149.348V322.579Z" fill="black"/>
<path d="M84.9685 266.337L97.1803 272.04L96.6365 272.709L96.1024 273.378H96.0975L84.8035 287.381L81.8221 282.535L81.0792 281.33L78.5786 277.269L84.1188 267.783H84.1237L84.9685 266.337Z" fill="url(#paint1_linear_18_1787)"/>
<path d="M147.838 118.787L135.412 98.6885L136.053 97.3498L147.906 116.52L163.618 96.3949L164.172 97.8585L147.838 118.787Z" fill="black"/>
<path d="M173.727 107.354C173.223 107.212 172.744 106.854 172.329 106.31C168.163 101.848 166.648 100.732 166.629 100.723L166.978 99.0634C167.041 99.0634 168.556 100.188 172.805 104.775L172.853 104.82C171.554 101.939 170.175 99.1837 168.721 96.5645L167.114 93.6284L165.774 93.3428L166.677 92.8341L166.386 92.2986L166.837 92.7448L167.988 92.1023C167.988 92.1023 169.183 91.3526 172.844 86.8189C171.241 87.997 169.003 89.8087 166.925 91.5757L164.24 93.8693L166.386 90.121C166.386 90.121 167.634 87.8185 168.042 82.0889C168.047 81.9433 168.047 81.7972 168.042 81.6516C166.939 82.437 163.599 89.9961 163.502 91.5222C163.5 91.4335 163.489 91.3464 163.468 91.2665C163.447 91.1865 163.417 91.1155 163.38 91.0581L162.73 92.3789C162.302 91.6739 162.628 90.4869 162.967 89.4338C163.56 87.5954 166.993 78.9564 168.454 79.8845C168.765 80.0809 169.105 80.661 168.988 82.3209C168.847 84.5136 168.52 86.6519 168.017 88.6574C175.053 82.7583 175.271 83.4633 175.505 84.1951C175.791 85.0876 175.242 85.9086 174.305 87.0867C172.164 89.764 170.712 91.424 169.765 92.3968C177.151 94.1103 177.141 95.0295 177.131 95.8506C177.131 96.9215 176.422 97.109 175.437 97.2428C173.792 97.5317 172.137 97.5645 170.489 97.341C174.781 105.418 174.402 106.328 174.169 106.881C174.12 107.016 174.054 107.129 173.978 107.211C173.901 107.293 173.816 107.342 173.727 107.354ZM167.944 93.8069L169.304 95.1366C169.304 95.1366 170.45 96.0737 174.645 95.6007C173.004 95.0295 170.46 94.3513 168.09 93.8158L167.944 93.8069Z" fill="black"/>
<path d="M143.375 139.688L131.445 106.542L132.251 105.561L143.832 137.734L162.666 131.674L162.831 133.432L143.375 139.688Z" fill="black"/>
<path d="M125.672 35.235C125.201 35.231 124.731 35.1474 124.269 34.9851C122.45 34.327 120.838 32.4081 119.768 29.626C118.698 26.8439 118.25 23.4117 118.519 20.0404C118.788 16.669 119.752 13.6168 121.211 11.5159C122.671 9.4151 124.514 8.4266 126.359 8.75518C128.205 9.08377 129.91 10.7043 131.123 13.281C132.336 15.8578 132.964 19.1934 132.875 22.5968C132.787 26.0003 131.99 29.2109 130.649 31.5636C129.308 33.9163 127.526 35.2309 125.672 35.235ZM125.672 10.2997C124.532 10.3127 123.416 10.8925 122.441 11.9777C121.466 13.0628 120.669 14.6128 120.135 16.4631C119.601 18.3133 119.349 20.3949 119.407 22.4869C119.464 24.579 119.829 26.6033 120.462 28.3452C121.458 30.5917 122.876 32.0715 124.436 32.4933C125.996 32.9152 127.585 32.2486 128.891 30.6247C130.197 29.0008 131.125 26.5373 131.493 23.7189C131.86 20.9004 131.641 17.9313 130.877 15.3957C130.298 13.8253 129.519 12.5397 128.607 11.6513C127.696 10.7629 126.679 10.2988 125.648 10.2997H125.672Z" fill="black"/>
<path d="M119.758 31.6381L107.459 44.6234L81.6367 166.158L82.1222 166.372L109.901 179.134L111.071 179.67L112.236 180.205L122.919 185.114L123.215 176.743L123.244 175.85L123.278 174.958L123.501 168.594L123.705 162.802L123.734 161.91V161.848L123.768 160.955L125.186 120.527V120.446L125.458 112.673L124.565 110.728L124.458 113.789V113.949L124.244 120.018V120.205L123.798 132.923V133.539L123.254 149.059L123.186 150.915L122.792 160.491L122.758 161.383V161.553L122.729 162.445L122.53 168.041L122.278 175.181L122.249 176.073L122.215 176.966L122.011 182.776L114.596 179.366L113.431 178.831L112.266 178.296L84.4432 165.507L82.9622 164.828L86.8467 146.649L86.9826 145.989L87.0263 145.801L87.2011 144.971L99.7188 86.069L99.9227 85.1052L108.279 45.7836L119.447 33.9764L126.507 55.3953L126.468 56.5377V56.7519L126.308 61.3212L126.245 63.1061L127.153 64.9446L127.216 63.1597L127.493 55.2257V54.9491L119.758 31.6381Z" fill="#E5D1B8"/>
<path d="M140.622 91.2547L126.769 117.002L104.875 71.1655L105.604 69.9875L121.617 103.517L122.263 104.865L126.808 114.378L139.282 91.2012L134.232 80.9558L133.863 80.2061L117.553 47.1049L118.272 45.909L134.679 79.1887L134.893 79.6349L140.622 91.2547Z" fill="#E5D1B8"/>
<path d="M124.851 121.562L98.0485 114.083L98.1942 112.316L109.119 115.369L94.669 109.675L94.8729 107.925L125.026 119.804L124.851 121.562Z" fill="#E5D1B8"/>
<path d="M121.214 139.581L92.0179 125.07L92.2267 123.329L123.574 133.004L123.414 134.771L101.85 128.113L121.467 137.868L121.214 139.581Z" fill="#E5D1B8"/>
<path d="M123.429 151.022L103.084 143.544L103.278 141.794L108.216 143.615L91.8092 135.619L92.0568 133.887L123.647 149.282L123.429 151.022Z" fill="#E5D1B8"/>
<path d="M123.652 159.331L91.5858 149.219L91.7509 147.461L108.245 152.664L86.0504 143.053L86.2738 141.312L123.846 157.582L123.652 159.331Z" fill="#E5D1B8"/>
<path d="M124.686 115.279L98.84 86.2478L99.345 84.7306L118.17 105.873L103.341 84.4271L103.938 83.026L125.24 113.816L124.686 115.279Z" fill="#E5D1B8"/>
<path d="M112.372 81.7588L111.756 80.3755L119.719 68.3541L110.882 78.3139L110.372 76.7878L125.211 60.0721L125.774 61.5268L112.372 81.7588Z" fill="#E5D1B8"/>
<path d="M116.927 90.5402L116.296 89.1837L124.104 77.0017L115.189 87.1043L114.684 85.5871L129.042 69.3176L129.61 70.7545L116.927 90.5402Z" fill="#E5D1B8"/>
<path d="M134.893 79.6348L134.232 80.9556L122.263 104.865L121.753 105.882L121.04 104.668L121.617 103.517L129.406 87.9614L119.976 99.7865L119.432 98.305L133.863 80.206L134.679 79.1885L134.893 79.6348Z" fill="#E5D1B8"/>
<path d="M126.512 110.308L125.851 109.005L132.018 98.3763L126.221 105.989L125.905 105.159H125.536V104.704L125.74 104.427L137.388 89.1393L138 90.5137L126.512 110.308Z" fill="#E5D1B8"/>
<path d="M126.779 58.4568L115.291 40.4202L115.922 39.0637L120.117 45.6589L116.451 38.5996L117.15 37.368L127.444 57.1627L126.779 58.4568Z" fill="#E5D1B8"/>
<path d="M107.92 72.0488L107.196 70.8618L115.451 53.7623L106.361 64.7395L105.827 63.2492L121.035 44.8735L107.92 72.0488Z" fill="#E5D1B8"/>
<path d="M126.434 31.7452L125.72 30.5315L130.066 21.8658C125.9 24.2397 120.802 27.2205 120.394 27.5596L120 28.0415L119.748 27.3097C119.554 26.7921 119.651 26.4173 119.889 26.0514H119.913C120.005 25.9086 120.112 25.7658 120.229 25.6051L121.2 24.2664L124.176 20.2147L124.662 19.581L119.321 24.1415L118.913 22.5262L132.994 10.5316L129.11 15.7792C127.201 18.3673 124.74 21.7051 122.928 24.1683C125.444 22.6779 129.008 20.6431 131.523 19.2152L133.242 18.2424L126.434 31.7452Z" fill="black"/>
<path d="M151.261 183.133L142.555 245.355L142.428 246.238L142.307 247.122L134.271 304.534L131.542 301.276L130.668 300.232L129.483 298.822L134.47 246.399L134.558 245.516L134.64 244.623L136.155 228.693L138.816 200.732L126.526 202.071L90.2359 206.006L86.5165 188.318L86.3417 187.47L86.162 186.622L82.1028 167.301V165.542H82.2873L82.297 165.551H82.3067L84.4237 165.596H84.4335L108.022 166.158H108.051L119.432 166.426L119.452 166.435L122.525 168.05L123.001 168.3L123.482 168.55L130.969 172.486H130.974L132.042 173.048L133.12 173.61L151.261 183.133Z" fill="url(#paint2_linear_18_1787)"/>
<path d="M174.363 140.232C173.902 140.215 173.442 140.149 172.985 140.036C166.813 138.733 162.938 137.403 162.899 137.359L163.079 135.574C163.113 135.574 166.964 136.903 173.091 138.197C171.8 137.305 169.867 136.091 168.11 135.11L168.352 133.378C168.386 133.378 171.504 134.547 176.145 132.254C174.529 132.102 171.659 132.182 168.838 132.414C168.476 132.501 168.11 132.531 167.745 132.504V130.719L168.678 130.638C170.788 130.175 172.726 128.262 174.101 125.284C174.226 125.039 174.331 124.763 174.412 124.463C173.635 123.99 170.095 125.685 166.769 127.818C166.431 128.122 166.074 128.353 165.706 128.505L165.449 126.792C165.759 126.578 166.08 126.363 166.42 126.158C166.873 125.758 167.249 125.113 167.498 124.311C167.842 123.097 167.789 121.517 167.337 119.625C167.056 118.438 166.755 118.412 166.653 118.394H166.614C165.342 118.394 162.87 124.534 161.506 128.943L160.661 128.05C161.263 126.096 164.376 116.368 166.701 116.6C167.158 116.645 167.794 117.073 168.231 118.894C168.78 121.205 168.843 123.222 168.415 124.891C171.61 123.017 174.655 121.785 175.276 123.445C175.713 124.588 175.068 125.971 174.854 126.426C174.121 128.015 173.238 129.345 172.246 130.353C178.073 130.121 178.151 131.085 178.214 131.763C178.311 132.843 177.617 133.298 176.757 133.744C175.143 134.652 173.482 135.242 171.8 135.502C175.577 137.894 175.495 138.644 175.417 139.322C175.339 140 175.019 140.232 174.363 140.232Z" fill="black"/>
<path d="M116.31 15.9131C116.31 15.9131 116.029 26.1049 121.074 28.0594C126.119 30.0139 128.935 15.9131 128.935 15.9131L134.762 17.698C134.762 17.698 137.893 4.39146 131.363 1.18754C124.832 -2.01638 120.195 0.741314 116.31 15.9131Z" fill="black"/>
<path d="M57.2181 110.79H57.0821L37.6938 108.729L37.6307 110.041L33.7171 188.157H76.9317L79.8936 114.217L79.9179 113.557V113.245L57.2181 110.79ZM77.796 114.806L57.354 150.674L39.1845 110.585L77.796 114.806ZM76.0431 186.372H34.7708L38.495 111.933L57.2763 153.352L78.8691 115.431L76.0431 186.372Z" fill="#F9B572"/>
<path d="M44.8606 28.2919L44.7392 29.577L37.3587 106.944L79.9906 113.388L80.4422 113.45L86.7253 39.5458L86.7496 39.2423L44.8606 28.2919ZM84.5549 40.4204L62.5834 73.1378L46.259 30.4605L84.5549 40.4204ZM79.6216 111.496L38.4998 105.248L45.5306 31.6118L62.4135 75.7081L85.6231 41.1611L79.6216 111.496Z" fill="#F9B572"/>
<path d="M245 331.021C242.587 331.021 3.7228 330.579 0.106008 331.021L0 329.217C3.67291 328.775 235.147 329.217 245 329.217V331.021Z" fill="black"/>
<defs>
<linearGradient id="paint0_linear_18_1787" x1="122.5" y1="91.7723" x2="122.5" y2="329.152" gradientUnits="userSpaceOnUse">
<stop stop-color="#738961"/>
<stop offset="1" stop-color="#7FB04F"/>
</linearGradient>
<linearGradient id="paint1_linear_18_1787" x1="87.8795" y1="266.337" x2="87.8795" y2="287.381" gradientUnits="userSpaceOnUse">
<stop stop-color="#738961"/>
<stop offset="1" stop-color="#7FB04F"/>
</linearGradient>
<linearGradient id="paint2_linear_18_1787" x1="116.682" y1="165.542" x2="116.682" y2="304.534" gradientUnits="userSpaceOnUse">
<stop stop-color="#738961"/>
<stop offset="1" stop-color="#7FB04F"/>
</linearGradient>
</defs>
</svg>
