<svg width="306" height="369" viewBox="0 0 306 369" fill="none" xmlns="http://www.w3.org/2000/svg">
<path d="M123.573 369C112.191 363.646 106.302 360.49 106.009 359.613V359.065L113.359 344L114.426 344.566L107.237 359.27C108.711 360.416 116.744 364.437 124.01 367.867L123.573 369Z" fill="black"/>
<path d="M282.017 369C279.604 369 40.7262 368.558 37.1029 369L37.0031 367.196C40.6701 366.754 272.17 367.196 282.024 367.196L282.017 369Z" fill="black"/>
<path d="M169.006 137H168.546C167.068 136.93 165.633 136.538 164.366 135.859C163.099 135.179 162.041 134.233 161.283 133.103C160.526 131.974 160.093 130.696 160.023 129.383C159.954 128.069 160.249 126.761 160.883 125.573C161.518 124.386 162.472 123.355 163.661 122.572C164.85 121.79 166.238 121.28 167.701 121.087C169.165 120.894 170.66 121.024 172.053 121.466C173.447 121.908 174.697 122.648 175.692 123.621C176.859 124.771 177.627 126.196 177.902 127.724C178.177 129.253 177.947 130.819 177.242 132.235C176.536 133.65 175.383 134.853 173.924 135.699C172.465 136.544 170.761 136.996 169.019 137H169.006ZM169.006 122.129C167.236 122.131 165.52 122.672 164.145 123.663C162.77 124.654 161.82 126.034 161.454 127.572C161.087 129.111 161.326 130.715 162.131 132.116C162.936 133.516 164.257 134.629 165.875 135.268C167.492 135.907 169.308 136.033 171.017 135.625C172.727 135.217 174.227 134.3 175.267 133.027C176.306 131.754 176.823 130.202 176.729 128.632C176.636 127.061 175.938 125.567 174.753 124.399C174.028 123.68 173.14 123.106 172.147 122.714C171.154 122.322 170.079 122.121 168.993 122.123L169.006 122.129Z" fill="black"/>
<path d="M170.614 135L169.514 134.347L174.114 128.569C169.067 130.643 162.974 133.191 162.48 133.463L161.993 133.844L161.573 133.411C161.253 133.111 161.36 132.862 161.633 132.579C161.633 132.579 161.633 132.579 161.667 132.579C161.767 132.481 161.887 132.377 162.02 132.261L163.134 131.302L166.534 128.413L166.781 128.205L160.74 131.603L160.013 130.638L177.128 121L172.414 125.045L165.534 130.834C168.354 129.644 172.268 128.032 175.781 126.593L178.015 125.68L170.614 135Z" fill="black"/>
<path d="M186.015 230.641L142.012 231L142.118 230.394L155.619 151.035L167.068 140L178.303 152.161L178.334 152.302L186.015 230.641ZM143.458 229.939L186.015 230.641L177.126 152.616L167.005 141.678L156.802 151.516L143.458 229.939Z" fill="black"/>
<path d="M175.67 367C171.75 367 169.6 366.825 169.235 366.48L169.014 365.98V349H170.275V365.573C172.166 365.898 181.557 365.717 189.959 365.354L190.016 366.606C183.868 366.873 179.086 367.004 175.67 367Z" fill="black"/>
<path d="M176.765 154L160.548 151.526C160.39 151.502 160.249 151.432 160.15 151.33C160.052 151.227 160.004 151.1 160.015 150.971C160.026 150.843 160.095 150.722 160.209 150.631C160.323 150.541 160.474 150.487 160.634 150.479L169.601 150.083L161.792 149.057L162.01 148L175.764 149.813C175.938 149.821 176.102 149.884 176.219 149.989C176.335 150.093 176.396 150.231 176.386 150.371C176.376 150.511 176.298 150.643 176.167 150.736C176.037 150.83 175.866 150.878 175.691 150.87L166.105 151.293L177.015 152.953L176.765 154Z" fill="#E5D1B8"/>
<path d="M156.117 168L156.013 166.621L172.827 165.034L159.425 163.246L159.474 161.866L178.728 161L178.776 162.386L167.306 162.899L179.015 164.458L178.997 165.838L156.117 168Z" fill="#E5D1B8"/>
<path d="M155.061 182.997C154.911 183.014 154.761 182.952 154.646 182.827C154.531 182.701 154.459 182.521 154.446 182.326C154.433 182.132 154.481 181.939 154.578 181.789C154.675 181.64 154.814 181.547 154.964 181.53L166.362 178.985L170.407 178.09C165.201 178.09 158.737 178.09 155.916 178.054C155.773 178.054 155.636 177.985 155.531 177.86C155.426 177.735 155.361 177.563 155.35 177.379C155.339 177.198 155.381 177.018 155.466 176.874C155.552 176.731 155.676 176.634 155.814 176.601L174.077 172.509L154.579 171.467C154.429 171.467 154.285 171.39 154.179 171.252C154.072 171.115 154.013 170.928 154.013 170.733C154.013 170.539 154.072 170.352 154.179 170.215C154.285 170.077 154.429 170 154.579 170L179.413 171.335C179.488 171.329 179.562 171.342 179.633 171.374C179.703 171.405 179.768 171.455 179.824 171.519C179.88 171.583 179.925 171.66 179.958 171.747C179.99 171.834 180.009 171.928 180.014 172.024C180.018 172.121 180.008 172.217 179.984 172.308C179.959 172.4 179.922 172.484 179.872 172.556C179.823 172.628 179.763 172.687 179.696 172.729C179.629 172.771 179.556 172.796 179.481 172.802L162.385 176.601C169.619 176.601 177.142 176.601 177.731 176.491V176.543C178.298 176.506 178.343 176.682 178.405 177.049C178.421 177.143 178.422 177.241 178.409 177.336C178.395 177.431 178.368 177.521 178.327 177.603C178.287 177.684 178.234 177.754 178.173 177.808C178.111 177.863 178.042 177.902 177.969 177.922H177.805C176.4 178.193 161.099 181.589 155.146 182.939L155.061 182.997Z" fill="#E5D1B8"/>
<path d="M181.744 195L154.38 193.022L154.368 191.754L172.405 190.073L152.013 189.262L152.054 188L181.986 189.186L182.015 190.447L162.1 192.305L181.821 193.732L181.744 195Z" fill="#E5D1B8"/>
<path d="M182.24 210L152.926 209.321L152.865 208.241L173.478 205.33L150.04 205.933L150.012 204.847L182.922 204L183.015 205.081L159.588 208.387L182.262 208.914L182.24 210Z" fill="#E5D1B8"/>
<path d="M183.58 223C179.898 223 147.571 223 146.504 222.747L146.012 222.64V221.981C146.012 221.216 146.012 221.216 152.361 220.273C155.462 219.822 159.783 219.224 165.206 218.489L169.595 217.892L146.436 218.489V216.957L183.953 216L184.015 217.532C175.006 218.711 163.116 220.304 155.208 221.415C163.037 221.476 174.74 221.499 183.62 221.499L183.58 223Z" fill="#E5D1B8"/>
<path d="M202.909 147L202.017 146.086L208.163 139.792L215.78 96L217.018 96.2253L209.332 140.422L202.909 147Z" fill="black"/>
<path d="M144.036 143C143.442 140.762 141.826 134.653 141.119 133.339C140.828 132.805 140.395 132 150.69 109.749C155.71 98.8994 160.903 88.1131 160.956 88L162.013 88.572C154.368 104.437 142.308 130.309 142.201 132.811C143.151 134.697 145.1 142.346 145.171 142.673L144.036 143Z" fill="black"/>
<path d="M165 92L164.454 90.8934C167.497 89.4122 170.461 87.7738 173.333 85.9847C171.423 86.0158 169.519 86.2102 167.643 86.5658L162.648 87.4622L167.302 85.4097C169.699 84.2261 171.723 82.4081 173.153 80.1548L173.246 80.0002C172.042 80.4392 169.269 82.1207 166.967 83.7096L164.708 85.2922L166.073 82.8997C167.093 80.9805 167.896 78.9549 168.468 76.8596C167.568 78.4176 166.352 80.7421 165.285 82.9244L164.131 82.4855C164.77 79.7914 165.087 77.0314 165.074 74.2631C163.908 77.2438 162.899 80.2835 162.052 83.3696L161.37 85.7559L160.849 83.3263C160.849 83.3263 160.514 81.7931 159.875 79.7406C159.608 81.7312 159.366 85.3726 159.254 88.7172L158.013 88.6739C158.41 77.4469 159.149 77.3357 159.688 77.2615C159.986 77.2182 160.383 77.3171 160.632 78.0466C160.991 79.0852 161.252 80.0435 161.5 80.841C164.187 71.8334 165.012 71.9447 165.527 72.0127C166.321 72.124 166.321 73.1997 166.321 73.8674C166.325 75.476 166.242 77.0836 166.073 78.6834C168.741 73.6078 169.244 73.7809 169.697 73.9354C170.392 74.1765 170.205 75.0606 170.075 75.6417C169.647 77.6167 169.023 79.5447 168.214 81.3974C173.444 77.9663 174.152 78.6216 174.419 78.8874C175.039 79.4624 174.418 80.4268 174.22 80.7854C173.233 82.3814 171.956 83.7799 170.454 84.9089C174.543 84.4391 174.797 85.1377 174.952 85.4653C175.256 86.2134 174.369 86.8069 174.04 87.0295C171.119 88.8484 168.101 90.5077 165 92Z" fill="black"/>
<path d="M221.665 103L220.853 101.956C221.16 101.7 227.251 96.4304 230.82 93.5532C229.394 94.0451 227.538 94.7526 225.817 95.4466L223.348 96.4438L225.082 94.3753C225.146 94.3011 230.904 87.4148 232.324 83.2575C230.929 84.376 227.954 87.6507 225.491 90.6693L223.572 93.0209L224.41 90.036C225.384 86.16 225.993 82.1923 226.227 78.1904C226.227 78.15 226.227 78.1096 226.227 78.0692C225.101 80.0906 222.971 85.3867 221.224 90.3257L220.456 92.5021L220.002 90.2314C219.235 86.7355 218.089 83.3441 216.586 80.1243C216.527 80.0008 216.461 79.8815 216.387 79.7671C215.748 81.0406 215.338 86.5052 215.261 91.5318C215.33 91.7651 215.345 92.0121 215.306 92.2528C215.293 92.3698 215.258 92.4829 215.201 92.5848C215.145 92.6868 215.07 92.7756 214.98 92.8457L213.963 93.6004V92.3404C213.963 92.145 213.963 91.9496 213.963 91.7609C213.816 91.2623 213.323 90.1303 211.685 87.8191C211.603 87.7021 211.516 87.5896 211.423 87.4822C211.058 88.877 211.57 94.2203 212.325 98.8359L211.045 99.065C209.721 90.9793 209.676 86.613 210.911 86.0538C211.749 85.6764 212.459 86.6804 212.69 87.0106C213.233 87.7787 213.662 88.4323 214.001 88.9915C214.219 82.2131 214.922 78.6284 216.106 78.3387C216.989 78.1096 217.52 79.2011 217.693 79.5515C218.978 82.2061 220.015 84.9864 220.789 87.8528C225.21 75.6704 226.272 75.9062 226.803 76.0275C227.666 76.2229 227.583 77.5166 227.538 78.2915C227.339 81.4627 226.926 84.615 226.304 87.7248C232.119 80.9059 233.002 81.4247 233.399 81.6605C234.09 82.0648 233.789 83.0688 233.693 83.399C232.784 86.4176 229.643 90.8108 227.698 93.2904C233.456 91.0601 233.68 91.4914 233.93 91.9833C234.262 92.6571 233.591 93.1287 233.232 93.3915C230.385 95.4331 221.755 102.926 221.665 103Z" fill="black"/>
<path d="M152.546 188L140.012 144.516L147.905 141L157.013 155.261L155.822 163.564L152.546 188ZM141.429 145.216L152.128 182.339L154.661 163.384L155.822 155.559L147.505 142.538L141.429 145.216Z" fill="black"/>
<path d="M180.515 175.5L179.307 156.584C178.759 154.396 179.124 153.935 179.263 153.766C179.334 153.678 179.423 153.605 179.525 153.551C179.627 153.498 179.739 153.466 179.854 153.457C181.012 153.166 193.511 147.189 201.674 143.224L202.133 143L208.017 150.129L180.515 175.5ZM180.307 154.578C180.322 155.174 180.411 155.766 180.572 156.342V156.421V158.5L181.515 173L206.375 150.02L201.825 144.509C194.342 148.146 182.579 153.802 180.282 154.578H180.307ZM179.936 154.675C179.982 154.684 180.029 154.684 180.075 154.675C180.029 154.681 179.982 154.681 179.936 154.675Z" fill="black"/>
<path d="M205.165 75L184.359 64.232C181.727 64.5689 154.531 67.5385 151.501 48.0863L152.745 47.8992C155.726 67.0145 184.104 63.0155 184.39 62.9718H184.589L204.854 73.4403L215.388 60.4888L201.27 44.4866V44.2183C202.297 30.8738 200.132 22.0648 194.663 17.2922C188.935 12.2969 181.463 9.78772 173.89 10.3166C166.317 10.8454 159.264 14.3689 154.282 20.1121C149.3 25.8552 146.798 33.3474 147.325 40.9406C147.853 48.5338 151.367 55.6059 157.094 60.6011L157.493 60.938L156.69 61.8925L156.279 61.5432C150.302 56.3312 146.635 48.9519 146.085 41.0288C145.534 33.1057 148.145 25.2878 153.343 19.2948C158.541 13.3018 165.9 9.62476 173.802 9.07253C181.704 8.5203 189.501 11.1381 195.478 16.3501C201.227 21.3411 203.535 30.4308 202.533 44.0499L217.018 60.4888L205.165 75Z" fill="black"/>
<path d="M175.207 50H174.015V44.4272L179.995 46.0673L174.724 36.1429L183.834 42.434L178.433 34L185.57 39.0161L184.544 34.8919L189.016 35.6401L188.825 36.8253L186.142 36.3764L187.501 41.8294L182.714 38.4654L188.044 46.7916L178.075 39.9139L182.344 47.9469L175.207 45.9955V50Z" fill="#F9B572"/>
<path d="M208.198 82L203.017 76.4728L218.369 56L223.019 59.3046L208.198 82ZM204.654 76.3815L208.026 79.9794L221.308 59.6566L218.626 57.7468L204.654 76.3815Z" fill="black"/>
<path d="M213.681 83L210.017 79.8404L222.646 63L226.019 66.8546L213.681 83ZM211.746 79.6761L213.474 81.1485L224.355 66.9368L222.71 65.0411L211.746 79.6761Z" fill="black"/>
<path d="M205.974 80L204.927 79.2629L213.084 67.8662L203.998 77.541L203.017 76.7234L218.716 60L219.749 60.7556L213.96 68.851L220.011 61.8767L221.018 62.6572L205.974 80Z" fill="#F9B572"/>
<path d="M214.599 81L213.673 80.221L214.97 77.5325L212.927 80.9793L212.018 80.1659L220.997 65L221.934 65.7583L218.876 72.1142L222.131 67.0474L223.018 67.9022L214.599 81Z" fill="#F9B572"/>
<path d="M143.858 223C145.057 226.826 104.009 348.607 104.009 348.607L117.717 355L184.015 242.5L143.858 223Z" fill="url(#paint0_linear_18_1784)"/>
<path d="M144.012 223C146.295 225.783 159.15 357 159.15 357L175.241 355.962L186.016 230.5L144.012 223Z" fill="url(#paint1_linear_18_1784)"/>
<path d="M32.0306 195.681L44.5639 163.148L0 160.154L40.7227 149.444L41.3044 150.61L7.76812 159.435L46.7626 162.051L35.7863 190.537L64.6002 165.819L92.4302 174.75L71.2903 158.605L98.8124 142.342L66.046 145.112L44.0848 125.985L48.371 153.182L46.6685 153.324L41.7322 122L66.7732 143.804L104.433 140.612L73.8056 158.723L99.5567 178.395L65.0793 167.332L32.0306 195.681Z" fill="#F9B572"/>
<path d="M55.0717 41.5323L62.1297 23.1926L37.0031 21.5068L60.4529 15.3337L61.0346 16.4989L44.7627 20.7816L64.3284 22.0956L58.8274 36.3942L73.2514 24.0169L86.5975 28.2935L76.3569 20.4779L90.3532 12.2037L73.9701 13.592L62.9339 3.97906L65.0812 17.5711L63.3788 17.7137L60.5812 0L74.6972 12.2843L95.9825 10.4807L78.8722 20.5957L93.724 31.9379L73.7305 25.523L55.0717 41.5323Z" fill="#F9B572"/>
<path d="M265.089 176.532L272.147 158.193L247.021 156.501L270.47 150.334L271.052 151.499L254.78 155.782L274.346 157.096L268.845 171.394L283.269 159.017L296.615 163.293L286.374 155.478L300.371 147.204L283.988 148.592L272.951 138.985L275.099 152.571L273.396 152.714L270.599 135L284.715 147.284L306 145.481L288.89 155.596L303.741 166.938L283.748 160.523L265.089 176.532Z" fill="#F9B572"/>
<defs>
<linearGradient id="paint0_linear_18_1784" x1="144.012" y1="223" x2="144.012" y2="355" gradientUnits="userSpaceOnUse">
<stop stop-color="#738961"/>
<stop offset="1" stop-color="#7FB04F"/>
</linearGradient>
<linearGradient id="paint1_linear_18_1784" x1="165.014" y1="223" x2="165.014" y2="357" gradientUnits="userSpaceOnUse">
<stop stop-color="#738961"/>
<stop offset="1" stop-color="#7FB04F"/>
</linearGradient>
</defs>
</svg>
