<svg width="245" height="360" viewBox="0 0 245 360" fill="none" xmlns="http://www.w3.org/2000/svg">
<path d="M66.7607 358.033C63.5978 358.033 61.8639 357.837 61.5689 357.452L61.391 356.891V337.898H62.408V356.436C63.9335 356.807 71.5101 356.597 78.2884 356.191L78.3342 357.592C73.3746 357.89 69.5168 358.037 66.7607 358.033Z" fill="black"/>
<path d="M16.4194 345.522C9.41223 334.601 5.89342 328.531 5.95444 327.495L6.16293 326.949L16.8872 315.005L17.5279 316.09L7.06805 327.719C7.8308 329.595 12.7022 337.562 17.1923 344.521L16.4194 345.522Z" fill="black"/>
<path d="M226.801 360C224.833 360 30.0572 359.657 27.1029 360L27.0215 358.6C30.0115 358.257 218.771 358.6 226.806 358.6L226.801 360Z" fill="black"/>
<path d="M168.715 320.669C167.206 320.669 165.732 320.053 164.477 318.899C163.223 317.745 162.245 316.105 161.668 314.186C161.091 312.267 160.94 310.156 161.234 308.119C161.528 306.082 162.255 304.21 163.321 302.742C164.388 301.273 165.747 300.273 167.227 299.868C168.706 299.463 170.24 299.671 171.634 300.465C173.028 301.26 174.219 302.606 175.057 304.333C175.895 306.06 176.342 308.09 176.342 310.167C176.342 312.953 175.539 315.624 174.108 317.593C172.678 319.562 170.738 320.669 168.715 320.669ZM168.715 301.066C167.407 301.066 166.129 301.6 165.042 302.6C163.955 303.6 163.108 305.022 162.608 306.685C162.107 308.348 161.976 310.178 162.231 311.943C162.487 313.708 163.116 315.33 164.041 316.603C164.965 317.876 166.143 318.743 167.425 319.094C168.708 319.445 170.037 319.265 171.245 318.576C172.453 317.887 173.485 316.72 174.211 315.224C174.938 313.727 175.325 311.967 175.325 310.167C175.325 307.754 174.629 305.439 173.389 303.732C172.15 302.025 170.468 301.066 168.715 301.066Z" fill="black"/>
<path d="M225.667 242.259H115.831V241.559L116.339 30.8321H116.848L225.667 24.5312V242.259ZM116.848 240.859H224.65V25.9314L117.356 32.1762L116.848 240.859Z" fill="black"/>
<path d="M60.9284 99.9446H60.5623C59.3856 99.8586 58.2424 99.3749 57.2338 98.5363C56.2251 97.6978 55.3819 96.5301 54.7788 95.1364C54.1757 93.7428 53.8312 92.1661 53.7757 90.5456C53.7202 88.9251 53.9554 87.3107 54.4606 85.8451C54.9657 84.3795 55.7253 83.1078 56.6722 82.1422C57.6191 81.1766 58.7241 80.547 59.8896 80.3089C61.0552 80.0708 62.2454 80.2316 63.3551 80.7771C64.4648 81.3226 65.4599 82.2359 66.2524 83.4365C67.1819 84.8545 67.7931 86.6129 68.012 88.499C68.231 90.3852 68.0484 92.3183 67.4863 94.0645C66.9242 95.8108 66.0067 97.2955 64.8446 98.339C63.6826 99.3825 62.3259 99.9402 60.9385 99.9446H60.9284ZM60.9284 81.5953C59.5188 81.597 58.1525 82.2651 57.0578 83.4876C55.9632 84.7102 55.2066 86.4131 54.9146 88.3116C54.6227 90.2101 54.813 92.1891 55.4538 93.9176C56.0946 95.646 57.1471 97.0192 58.4351 97.8073C59.7232 98.5955 61.1687 98.7508 62.53 98.2475C63.8913 97.7441 65.0858 96.6125 65.9137 95.0419C66.7416 93.4713 67.1527 91.557 67.0783 89.6191C67.0039 87.6812 66.4484 85.8373 65.5049 84.3956C64.9272 83.5091 64.22 82.8007 63.4295 82.3169C62.6391 81.8331 61.7832 81.5848 60.9182 81.5883L60.9284 81.5953Z" fill="black"/>
<path d="M62.4538 97.1375L61.6148 96.3464L65.1234 89.3455C61.2741 91.8588 56.6264 94.9462 56.2501 95.2752C56.1504 95.3871 56.0237 95.4428 55.8953 95.4311C55.767 95.4194 55.6467 95.3412 55.5586 95.2122C55.3145 94.8482 55.3959 94.5472 55.6043 94.2041C55.6806 94.0851 55.7721 93.9591 55.8738 93.8191L56.723 92.6569L59.3164 89.1565L59.5045 88.9044L54.8975 93.021L54.3433 91.8518L63.2013 83.8848C63.3069 83.7755 63.4393 83.7272 63.5704 83.75C63.7015 83.7727 63.8209 83.8648 63.9036 84.0068C63.9862 84.1487 64.0254 84.3293 64.013 84.5104C64.0005 84.6915 63.9374 84.8588 63.8369 84.9769L58.5791 92.0898C60.73 90.6477 63.7149 88.6944 66.3947 86.9512C66.4963 86.8836 66.6114 86.8644 66.7218 86.8968C66.8322 86.9291 66.9316 87.0111 67.0044 87.1298C67.0773 87.2485 67.1193 87.3972 67.124 87.5525C67.1287 87.7077 67.0957 87.8607 67.0303 87.9873L62.4538 97.1375Z" fill="black"/>
<path d="M40.8273 211.105C43.0952 213.94 56.8806 347.392 56.8806 347.392L69.0083 347.063L80.4902 210.405L40.8273 211.105Z" fill="url(#paint0_linear_87_5749)"/>
<path d="M47.5396 132.548L47.1837 136.706L48.0888 138.107L48.3278 135.306L47.5396 132.548ZM47.5396 132.548L47.1837 136.706L48.0888 138.107L48.3278 135.306L47.5396 132.548ZM47.5396 132.548L47.1837 136.706L48.0888 138.107L48.3278 135.306L47.5396 132.548ZM47.5396 132.548L47.1837 136.706L48.0888 138.107L48.3278 135.306L47.5396 132.548ZM46.9294 139.696L46.7921 141.327L47.3006 140.627C47.1566 140.333 47.0324 140.021 46.9294 139.696ZM47.5396 132.576L47.1837 136.734L48.0888 138.135L48.3278 135.334L47.5396 132.576ZM46.9294 139.696L46.7921 141.327L47.3006 140.627C47.1566 140.333 47.0324 140.021 46.9294 139.696ZM47.5396 132.576L47.1837 136.734L48.0888 138.135L48.3278 135.334L47.5396 132.576ZM46.9294 139.696L46.7921 141.327L47.3006 140.627C47.1566 140.333 47.0324 140.021 46.9294 139.696ZM47.5396 132.576L47.1837 136.734L48.0888 138.135L48.3278 135.334L47.5396 132.576ZM75.3749 141.278L75.0748 137.883L73.5798 121.038L73.5137 120.303V120.086L73.3917 118.686V118.623L73.3663 118.322L61.2284 105.973L49.0244 115.473L48.4549 122.075L48.2922 123.944L49.4058 122.873L49.5685 120.996L49.9651 116.327L61.1521 107.625L72.2272 118.896L72.4052 119.078L74.0883 138.044L80.4242 209.705L41.9105 210.405L47.7379 142.174L47.9159 140.116L46.7769 141.46L46.5989 143.518L40.7613 211.805L81.5735 211.105L75.3749 141.278ZM48.3278 135.292L47.5396 132.576L47.1837 136.734L48.0888 138.135L48.3278 135.292ZM46.9294 139.696L46.7921 141.327L47.3006 140.627C47.1566 140.333 47.0324 140.021 46.9294 139.696ZM47.5396 132.576L47.1837 136.734L48.0888 138.135L48.3278 135.334L47.5396 132.576ZM46.9294 139.696L46.7921 141.327L47.3006 140.627C47.1566 140.333 47.0324 140.021 46.9294 139.696ZM47.5396 132.576L47.1837 136.734L48.0888 138.135L48.3278 135.334L47.5396 132.576ZM46.9294 139.696L46.7921 141.327L47.3006 140.627C47.1566 140.333 47.0324 140.021 46.9294 139.696ZM47.5396 132.576L47.1837 136.734L48.0888 138.135L48.3278 135.334L47.5396 132.576ZM46.9294 139.696L46.7921 141.327L47.3006 140.627C47.1566 140.333 47.0324 140.021 46.9294 139.696ZM46.9294 139.696L46.7921 141.327L47.3006 140.627C47.1566 140.333 47.0324 140.021 46.9294 139.696ZM47.5396 132.576L47.1837 136.734L48.0888 138.135L48.3278 135.334L47.5396 132.576ZM47.5396 132.576L47.1837 136.734L48.0888 138.135L48.3278 135.334L47.5396 132.576ZM47.5396 132.576L47.1837 136.734L48.0888 138.135L48.3278 135.334L47.5396 132.576Z" fill="black"/>
<path d="M51.2617 212.694C51.2617 212.694 7.26636 310.602 7.97318 310.28C8.67999 309.958 19.867 326.319 19.867 326.319L59.8248 263.78L51.2617 212.694Z" fill="url(#paint1_linear_87_5749)"/>
<path d="M67.4066 119.953L54.8823 116.677C54.7603 116.645 54.651 116.552 54.5751 116.417C54.4992 116.282 54.462 116.113 54.4704 115.942C54.4789 115.772 54.5321 115.612 54.6201 115.492C54.7081 115.372 54.8248 115.301 54.9484 115.291L61.8741 114.766L55.8433 113.408L56.0111 112.007L66.6337 114.409C66.7686 114.419 66.8949 114.503 66.9851 114.641C67.0752 114.78 67.1216 114.962 67.1142 115.147C67.1068 115.333 67.0461 115.507 66.9455 115.631C66.8449 115.755 66.7126 115.819 66.5778 115.809L59.174 116.369L67.5998 118.567L67.4066 119.953Z" fill="#E5D1B8"/>
<path d="M50.7379 134.151L50.6515 132.758L64.6352 131.154L53.4889 129.348L53.5296 127.955L69.5422 127.08L69.5829 128.48L60.0435 128.998L69.7812 130.573L69.766 131.967L50.7379 134.151Z" fill="#E5D1B8"/>
<path d="M49.9041 151.401C49.7692 151.417 49.6353 151.359 49.5318 151.238C49.4284 151.118 49.3638 150.946 49.3523 150.761C49.3409 150.575 49.3834 150.391 49.4707 150.248C49.558 150.106 49.6827 150.017 49.8176 150.001L60.0486 147.572L64.5895 146.501C59.8299 146.347 53.5093 146.06 50.86 145.934C50.7311 145.934 50.6069 145.867 50.5125 145.746C50.4181 145.625 50.3605 145.46 50.3515 145.283C50.3435 145.11 50.3821 144.939 50.4601 144.803C50.538 144.668 50.6497 144.577 50.7736 144.547L62.1284 141.845L48.8311 143.098C48.697 143.11 48.5651 143.048 48.4641 142.926C48.3631 142.804 48.3012 142.632 48.2921 142.447C48.2873 142.355 48.2957 142.263 48.3168 142.175C48.338 142.088 48.3715 142.007 48.4155 141.937C48.4594 141.868 48.5129 141.811 48.5729 141.77C48.6329 141.729 48.6982 141.704 48.765 141.698L71.9119 139.514C72.042 139.502 72.1704 139.559 72.2707 139.674C72.3711 139.788 72.4356 139.952 72.4509 140.13C72.4672 140.308 72.433 140.489 72.3554 140.633C72.2778 140.778 72.1626 140.876 72.0339 140.907L55.8484 144.758C62.4996 145.045 69.6999 145.311 70.2644 145.206V145.255C70.7729 145.22 70.8085 145.388 70.8644 145.738C70.8786 145.828 70.8797 145.921 70.8677 146.012C70.8556 146.102 70.8307 146.189 70.7943 146.266C70.7579 146.344 70.7108 146.41 70.6557 146.463C70.6005 146.515 70.5384 146.552 70.4728 146.571H70.3508C69.2575 146.781 55.3653 150.071 50.0108 151.359L49.9041 151.401Z" fill="#E5D1B8"/>
<path d="M73.0204 165.809L49.3904 163.625L49.3802 162.225L64.9556 160.369L47.3463 159.473L47.3869 158.08L73.2289 159.389L73.2543 160.783L56.0619 162.834L73.0865 164.409L73.0204 165.809Z" fill="#E5D1B8"/>
<path d="M75.4206 183.711L48.3074 182.835L48.2464 181.442L67.3151 177.69L45.6327 178.467L45.6073 177.067L76.0511 175.975L76.1376 177.368L54.4653 181.631L75.4409 182.31L75.4206 183.711Z" fill="#E5D1B8"/>
<path d="M77.3326 195.934C74.0171 195.934 44.9157 195.934 43.9547 195.703L43.5123 195.605V195.003C43.5123 194.303 43.5123 194.303 49.2278 193.442C52.0195 193.029 55.9095 192.483 60.7911 191.811L64.7421 191.265L43.8937 191.811V190.41L77.6682 189.535L77.7241 190.935C69.6135 192.014 58.9096 193.47 51.7906 194.485C58.8384 194.541 69.3746 194.562 77.3682 194.562L77.3326 195.934Z" fill="#E5D1B8"/>
<path d="M42.6376 215.579L42.5309 214.192L73.8849 207.367L43.5529 206.631L43.5326 205.231L79.0513 202.613L79.1072 204.013L57.8723 205.574L79.7225 206.106L79.7937 207.493L52.7619 213.38L78.5733 211.343L78.6292 212.743L42.6376 215.579Z" fill="#E5D1B8"/>
<path d="M129.876 97.4313L88.733 124.91L87.6804 125.617L86.7142 124.7L87.7668 124L124.669 99.3495L77.9833 103.991L77.9477 103.284L77.9121 102.591L78.3342 102.549L129.876 97.4313Z" fill="black"/>
<path d="M76.2138 106.568L75.4053 105.734C75.4307 105.692 77.9987 100.869 79.0157 98.8176C79.4225 98.0125 79.3309 97.8375 79.0157 97.2564C78.6381 96.6178 78.4332 95.8186 78.436 94.9951C78.436 94.6451 78.436 94.6451 77.9834 94.5611C77.5308 94.4771 76.5545 94.3091 76.4579 92.6008C75.8507 93.6668 75.3033 94.7948 74.8205 95.9752L73.651 98.7756L73.8798 95.5902C73.8798 95.5132 74.3883 88.0712 73.6357 83.8777C72.7357 87.2941 71.3271 99.9798 71.2814 101.219L71.256 102.024L70.6763 101.884C69.073 101.4 67.4404 101.124 65.7998 101.058C65.8552 101.118 65.9129 101.174 65.9726 101.226C68.805 103.907 70.7322 104.026 70.7525 104.026V105.426C70.661 105.426 68.5253 105.349 65.4133 102.409C65.0777 102.094 64.2946 101.359 64.5692 100.47C64.7065 100.022 65.0218 98.9926 70.3457 100.393C70.4983 98.7616 70.8949 95.0651 71.3627 91.5997C72.6035 82.0575 73.1781 81.9385 73.6459 81.8404C73.8646 81.7984 74.2815 81.8405 74.5104 82.8626C75.1561 85.6629 75.1511 90.0735 75.0595 92.9509C76.2545 90.5776 76.7274 90.7596 76.9511 90.8506C77.3223 90.9906 77.5054 91.4597 77.5003 92.2508C77.4952 93.0419 77.6325 93.1539 78.1665 93.2449C78.6089 93.3219 79.5242 93.4899 79.5089 95.0861C79.5114 95.6134 79.6502 96.1221 79.9004 96.5213C80.3327 97.3684 80.6276 98.1945 79.9004 99.6787C78.8173 101.681 76.2392 106.519 76.2138 106.568Z" fill="black"/>
<path d="M42.4698 188.723L42.2359 190.081L0 176.443L35.5593 138.975L36.3628 138.128L36.9577 139.262L36.1543 140.116L2.32893 175.757L42.4698 188.723Z" fill="black"/>
<path d="M38.6255 207.73C38.5134 207.728 38.4041 207.682 38.3102 207.597C38.0153 207.338 37.6644 207.03 38.9916 202.592C38.5746 203.243 38.1221 203.922 37.6288 204.601C37.3034 205.042 36.7644 205.791 36.2813 205.301C35.9508 204.951 35.5796 204.559 38.2441 198.055C37.4509 198.818 36.383 199.854 35.0202 201.192C34.5117 201.675 33.927 202.27 33.5354 201.647C33.1439 201.024 32.8795 200.617 39.9476 190.34L40.69 191.306C38.9102 193.89 37.0491 196.704 35.8135 198.699C38.356 196.207 39.5154 195.157 39.5306 195.143L41.3714 193.449L40.2476 196.081C39.3069 198.279 38.3102 200.772 37.7051 202.508C38.8994 200.733 39.9734 198.811 40.9137 196.767L41.8087 197.425C40.929 199.987 40.0086 202.886 39.4899 204.797C42.2613 199.707 46.3089 189.038 45.953 187.547L46.9191 187.099C47.57 189.787 41.9053 203.047 39.7086 206.701C39.4187 207.1 39.0374 207.73 38.6255 207.73Z" fill="black"/>
<path d="M51.6838 135.663L52.3449 136.727L49.6702 139.885L49.4515 140.144L47.7379 142.167L46.5988 143.511L41.2494 149.826L36.1543 140.116L35.5593 138.975L34.0135 136.027L42.2766 128.032L42.6122 127.71L48.4345 122.074L49.5481 120.996L53.2449 117.419L53.8348 118.567L49.3854 122.873L48.2718 123.944V123.951L43.3037 128.753L42.6681 129.369L35.4373 136.363L36.3627 138.128L36.9577 139.262L41.4223 147.768L46.7768 141.453L47.9158 140.109L48.765 139.108L49.2684 138.513L51.6838 135.663Z" fill="black"/>
<path d="M88.7331 124.91L87.767 124L80.6124 117.293L75.4053 118.273L73.3714 118.665L72.2069 118.889L71.6272 119.001L74.068 138.037L74.5765 141.971L75.3799 141.271L91.0671 127.094L88.7331 124.91ZM87.2076 128.922L86.333 129.706L85.9313 130.07L85.7686 130.217L85.3516 130.595L78.8326 136.476L77.8614 137.351L75.3189 139.647L75.0901 137.855L72.8273 120.192L73.5087 120.059L74.2561 119.911H74.3782L75.5782 119.673L75.9494 119.603L79.2649 118.959L79.5903 118.896H79.6259L80.1751 118.791L80.3734 118.749L86.7195 124.728L87.6856 125.645L89.2365 127.094L87.5229 128.642L87.2076 128.922Z" fill="black"/>
<path d="M43.0088 143.693L40.1104 139.696C40.6189 141.271 41.0765 142.86 41.3002 143.637L40.3544 144.155C39.668 141.789 38.8747 139.255 38.3662 137.784C38.2454 137.399 38.0972 137.031 37.9238 136.685L37.8933 136.643L38.6103 135.656L38.656 135.719L39.3781 136.713L43.7309 142.699L43.0088 143.693Z" fill="#E5D1B8"/>
<path d="M49.6702 139.885L49.4516 140.144L48.7651 139.108L48.0888 138.079L47.1837 136.679L44.9208 133.255C45.6785 135.782 46.4463 138.296 46.9294 139.64C47.0315 139.972 47.1558 140.291 47.3006 140.592L46.7921 141.292L46.5684 141.586C46.1412 140.991 44.6005 135.922 43.5174 132.331C43.3801 131.848 43.2479 131.4 43.1258 130.987L42.8817 130.147L42.6529 129.363L42.2614 128.025L42.597 127.703L43.2885 128.747L44.092 129.965L44.7785 131.008L46.9192 134.249L45.6988 130.049L45.3073 128.705L44.9157 127.36L45.8616 126.842L46.1463 127.815L46.5379 129.167L47.5243 132.555L48.3125 135.271L49.2532 138.52L49.6702 139.885Z" fill="#E5D1B8"/>
<path d="M81.4412 133.052L80.5564 133.738L79.4784 131.092L78.975 129.866L77.4647 126.17L78.0342 130.496L78.2224 131.932L78.8224 136.475L78.9546 137.469L77.9783 137.833L77.8512 137.35L76.702 132.947L76.3562 131.624L73.5798 121.01L73.4018 120.331L73.5137 120.275L74.2408 119.911H74.2459L74.3578 119.855L74.368 119.89L76.8596 129.425L75.568 119.652L75.39 118.28L75.3799 118.217L75.4053 118.273L75.9392 119.582L79.8903 129.257L80.3937 130.482L81.4412 133.052Z" fill="#E5D1B8"/>
<path d="M87.95 127.976L87.6093 128.494L87.5228 128.627L87.2686 129.012L87.1974 128.921L85.6312 126.982L84.8125 125.967L84.2532 125.267L84.5837 126.114C84.7007 126.415 84.8176 126.702 84.9295 126.982C84.9956 127.101 85.0566 127.213 85.1125 127.325C85.7177 128.431 86.094 129.18 86.3228 129.698C86.7448 130.65 86.6686 130.825 86.5872 131.028L86.0431 131.393C85.9211 131.393 85.7533 131.337 85.3414 130.587C84.9055 129.747 84.5081 128.87 84.1515 127.962L84.0498 127.794C83.8871 127.493 83.7091 127.185 83.5413 126.856C82.2853 124.63 80.6428 121.801 79.0817 119.155L79.2546 118.959L79.4733 118.693L79.8648 118.252L80.1649 118.763C80.6734 119.617 81.1412 120.41 81.5683 121.143L80.8615 119.197L85.7939 125.309L86.6126 126.324L87.95 127.976Z" fill="#E5D1B8"/>
<path d="M165.918 269.913H115.577V246.11H165.918V269.913ZM116.594 268.512H164.901V247.51H116.594V268.512Z" fill="black"/>
<path d="M225.921 269.913H175.58V246.11H225.921V269.913ZM176.597 268.512H224.904V247.51H176.597V268.512Z" fill="black"/>
<path d="M194.435 194.338L144.515 191.502L148.512 129.608L138.342 142.951L128.147 117.839L154.08 90.0175H190.057L211.846 120.009L203.451 139.402L190.901 128.2L194.435 194.338ZM145.619 190.137L193.336 192.903L189.706 125.526L203.089 137.428L210.534 120.219L189.609 91.3896H154.396L129.479 118.175L138.607 140.669L149.794 126.009L145.619 190.137Z" fill="black"/>
<path d="M144.566 188.702L144.556 187.302L188.348 186.525L151.233 176.871L190.006 164.584L150.175 147.992L187.555 136.707L151.339 117.321L187.585 96.3464L187.982 97.6346L154.055 117.265L191.063 137.085L154.202 148.202L193.962 164.766L156.196 176.731L193.53 186.448L193.438 187.834L144.566 188.702Z" fill="#F9B572"/>
<path d="M147.714 136.952L131.096 115.249L131.798 114.234L142.726 128.494L133.374 107.688L136.161 111.265C139.791 115.928 143.844 120.863 145.461 122.467C144.983 119.155 143.315 109.627 142.207 103.452L143.193 103.116C143.544 105.069 146.595 122.152 146.595 123.594C146.598 123.749 146.567 123.902 146.506 124.033C146.445 124.163 146.358 124.267 146.255 124.329C145.949 124.511 145.405 124.84 138.195 115.774L147.714 136.952Z" fill="#F9B572"/>
<path d="M202.261 136.909L201.279 136.552L204.132 121.564L195.254 133.031L203.125 110.964L204.04 111.587L198.62 126.758L206.013 117.223L202.261 136.909Z" fill="#F9B572"/>
<path d="M172.02 89.9895H171.003V79.9012L171.151 79.6912C171.191 79.6352 175.219 74.0134 174.873 69.1128C174.792 68.1977 174.56 67.3206 174.193 66.5495C173.826 65.7785 173.335 65.1344 172.758 64.6673C171.588 63.5961 170.617 63.3371 169.869 63.8902C167.881 65.3533 167.444 72.1092 167.444 74.5875H166.427C166.427 74.1885 166.462 64.7863 169.386 62.651C170.495 61.8389 171.817 62.1259 173.317 63.5051C174.024 64.0822 174.624 64.8779 175.07 65.8292C175.516 66.7806 175.795 67.8616 175.885 68.9868C176.246 74.0345 172.798 79.3551 172.02 80.4823V89.9895Z" fill="black"/>
<path d="M197.989 263.829L193.581 259.271L194.191 258.151L197.918 261.994L206.756 250.499L207.457 251.521L197.989 263.829Z" fill="black"/>
<path d="M245 344.472H244.481L102.102 343.772V3.17841H103.119V342.372L243.963 343.072L239.407 1.45619L112.038 8.42908L111.997 7.0289L240.403 0L240.413 0.714094L245 344.472Z" fill="black"/>
<path d="M235.847 324.176H235.338L107.197 322.776V322.076L109.231 21.0377H109.739L232.287 17.5372V18.2373L235.847 324.176ZM108.214 321.376L234.83 322.776L231.27 18.9374L110.248 22.4379L108.214 321.376Z" fill="black"/>
<defs>
<linearGradient id="paint0_linear_87_5749" x1="60.6588" y1="210.405" x2="60.6588" y2="347.392" gradientUnits="userSpaceOnUse">
<stop stop-color="#738961"/>
<stop offset="1" stop-color="#7FB04F"/>
</linearGradient>
<linearGradient id="paint1_linear_87_5749" x1="33.8948" y1="212.694" x2="33.8948" y2="326.319" gradientUnits="userSpaceOnUse">
<stop stop-color="#738961"/>
<stop offset="1" stop-color="#7FB04F"/>
</linearGradient>
</defs>
</svg>
