<svg width="245" height="360" viewBox="0 0 245 360" fill="none" xmlns="http://www.w3.org/2000/svg">
<path d="M148.558 327.105L148.128 326.85L138.16 311.867L138.91 310.782L148.642 325.386C149.964 324.03 155.42 315.787 160.184 308.225L160.955 309.287C153.511 321.101 149.34 327.09 148.558 327.105Z" fill="black"/>
<path d="M217.719 0H27.2805C20.0453 0 13.1064 4.24439 7.99028 11.7994C2.87419 19.3545 0 29.6013 0 40.2858C0 50.9702 2.87419 61.2171 7.99028 68.7722C13.1064 76.3272 20.0453 80.5716 27.2805 80.5716H60.6729L61.1451 79.7969L61.6172 79.0221H27.2805C20.3235 79.0221 13.6515 74.941 8.73221 67.6765C3.81289 60.4121 1.04925 50.5593 1.04925 40.2858C1.04925 30.0123 3.81289 20.1595 8.73221 12.8951C13.6515 5.63059 20.3235 1.54945 27.2805 1.54945H217.719C224.676 1.54945 231.348 5.63059 236.268 12.8951C241.187 20.1595 243.951 30.0123 243.951 40.2858C243.951 50.5593 241.187 60.4121 236.268 67.6765C231.348 74.941 224.676 79.0221 217.719 79.0221H63.1649L64.0043 80.5716H217.719C224.955 80.5716 231.894 76.3272 237.01 68.7722C242.126 61.2171 245 50.9702 245 40.2858C245 29.6013 242.126 19.3545 237.01 11.7994C231.894 4.24439 224.955 0 217.719 0Z" fill="black"/>
<path d="M221.775 360C219.744 360 18.792 359.62 15.7439 360L15.66 358.451C18.7448 358.071 213.491 358.451 221.78 358.451L221.775 360Z" fill="black"/>
<path d="M70.1896 59.1117C70.1484 58.9265 70.0994 58.7454 70.0427 58.5694C69.7236 57.4319 69.2747 56.3837 68.7154 55.4705C68.5079 55.129 68.2853 54.8081 68.0492 54.5098C67.9075 54.3316 67.7606 54.1612 67.6137 53.9985C66.6838 52.9889 65.607 52.3143 64.4691 52.0287C63.3312 51.7431 62.1639 51.8544 61.0604 52.3537C59.9568 52.8529 58.9476 53.7263 58.1133 54.9042C57.2791 56.082 56.6429 57.5315 56.2555 59.1371C55.8682 60.7427 55.7405 62.4598 55.8826 64.1512C56.0246 65.8426 56.4326 67.4616 57.0738 68.8788C57.7151 70.2959 58.5718 71.472 59.5757 72.3131C60.5795 73.1542 61.7027 73.6371 62.8554 73.723H63.2331C64.4213 73.7189 65.5914 73.293 66.6449 72.4813C67.6983 71.6696 68.6042 70.4958 69.2861 69.0589C69.9681 67.622 70.4061 65.964 70.5634 64.2248C70.7206 62.4855 70.5924 60.716 70.1896 59.0652V59.1117ZM58.5167 69.1366C58.438 69.0049 58.3593 68.8732 58.2911 68.7415C58.071 68.3409 57.8744 67.9132 57.7035 67.4632C57.5015 66.954 57.3379 66.4136 57.2156 65.8518C57.1976 65.7885 57.1818 65.7239 57.1684 65.6581C57.1265 65.4722 57.0897 65.2785 57.0583 65.0848C57.0132 64.8141 56.9781 64.54 56.9533 64.2636C56.7737 62.4816 56.945 60.6609 57.4469 59.0188C57.9487 57.3766 58.7599 55.9823 59.7836 55.0023C60.8073 54.0222 62.0003 53.4978 63.2204 53.4915C64.4404 53.4852 65.6358 53.9974 66.6642 54.9669C67.1313 55.4177 67.5594 55.951 67.939 56.5551C68.4251 57.347 68.8155 58.2563 69.0932 59.2434C69.2307 59.7455 69.3395 60.2638 69.4184 60.7928C69.7299 62.8151 69.5789 64.9329 68.9889 66.8149C68.3989 68.697 67.4033 70.2374 66.1576 71.1952C64.9119 72.153 63.4864 72.4744 62.104 72.1089C60.7215 71.7435 59.46 70.7119 58.5167 69.1754V69.1366Z" fill="black"/>
<path d="M70.6302 58.1589L70.1895 59.1118L69.8118 59.8865L69.4183 60.7233L64.8069 70.632L64.3714 70.1904L63.957 69.7643L67.5769 62.017C64.8698 63.9151 61.806 66.0999 59.9646 67.4401C59.1147 68.0599 58.5481 68.486 58.4222 68.61L58.3068 68.7649L58.0392 69.1135L57.7087 68.5325C57.6585 68.4671 57.6182 68.3866 57.5907 68.2965C57.5631 68.2063 57.5488 68.1085 57.5488 68.0096C57.5488 67.9106 57.5631 67.8129 57.5907 67.7227C57.6182 67.6325 57.6585 67.552 57.7087 67.4866L57.7454 67.4169C57.8241 67.2852 57.9185 67.1457 58.0235 66.9908L58.3697 66.4795L58.8944 65.7048L61.5699 61.8311L61.7641 61.5522L57.2995 65.8287L57.1946 65.9294L57.011 66.1076L56.7276 65.4723L56.4548 64.8603V64.8216L56.9375 64.3567L66.6483 55.06L67.1257 54.6029L67.5979 54.1458L69.9115 51.9301L68.0333 54.6571L67.6556 55.1995L67.2779 55.7495L66.2286 57.299L60.8092 65.0772C63.0284 63.4813 66.1079 61.3198 68.8727 59.3907L69.0931 59.2358L69.5652 58.9104L70.0426 58.5773L70.6302 58.1589Z" fill="black"/>
<path d="M72.6973 104.301L72.734 104.34L72.5819 103.209L72.5189 102.729V102.659L71.4067 92.9672L70.8244 91.9213L64.6758 80.5716L64.2561 79.7969H63.5846L64.0042 80.5716L68.0963 88.1174L68.878 89.5662L70.9136 93.3236L71.9628 102.52L72.0887 103.627L72.2146 104.735L72.8232 105.409L72.6973 104.301ZM72.6973 104.301L72.734 104.34L72.5819 103.209L72.5189 102.729V102.659L71.4067 92.9672L70.8244 91.9213L64.6758 80.5716L64.2561 79.7969H63.5846L64.0042 80.5716L68.0963 88.1174L68.878 89.5662L70.9136 93.3236L71.9628 102.52L72.0887 103.627L72.2146 104.735L72.8232 105.409L72.6973 104.301ZM72.6973 104.301L72.734 104.34L72.5819 103.209L72.5189 102.729V102.659L71.4067 92.9672L70.8244 91.9213L64.6758 80.5716L64.2561 79.7969H63.5846L64.0042 80.5716L68.0963 88.1174L68.878 89.5662L70.9136 93.3236L71.9628 102.52L72.0887 103.627L72.2146 104.735L72.8232 105.409L72.6973 104.301ZM72.6973 104.301L72.734 104.34L72.5819 103.209L72.5189 102.729V102.659L71.4067 92.9672L70.8244 91.9213L64.6758 80.5716L64.2561 79.7969H63.5846L64.0042 80.5716L68.0963 88.1174L68.878 89.5662L70.9136 93.3236L71.9628 102.52L72.0887 103.627L72.2146 104.735L72.8232 105.409L72.6973 104.301ZM83.7984 196.781L83.4416 193.682L82.3661 184.029L82.235 182.882L76.5848 133.431L76.4746 132.486L76.3697 131.533L75.9132 132.23L75.4621 132.928L75.5722 133.873L75.6772 134.826L78.1429 156.379L78.2268 157.153L78.316 157.928L79.8479 171.339L79.9319 172.113L80.0158 172.888L81.2592 183.788L81.2959 184.067L81.9359 189.7L82.0251 190.474L82.1091 191.249L82.4186 193.945L83.2055 200.856L83.6829 205.024H82.597L66.7428 204.613L46.4241 204.086L42.7202 203.993L44.5931 185.16L45.2856 178.226L45.3591 177.451V177.412L45.4378 176.638L45.7106 173.887L45.7788 173.213V173.113L45.8575 172.338L47.169 159.168L47.2425 158.463V158.385L47.3212 157.61L49.257 138.188L49.32 137.553V137.421L49.3987 136.646L51.3608 116.984L51.5129 115.434L52.1425 109.128L52.2054 108.477L52.3313 107.238L52.4258 106.269L52.4992 105.495V105.394L53.8685 91.6812L60.6729 80.5716L61.145 79.7969L61.6172 79.0221L62.4356 77.6741L63.1648 79.0221L64.0042 80.5716L68.0963 88.1174L68.878 89.5662L70.9136 93.3236L71.9628 102.52L72.0887 103.627L72.2146 104.735L72.8232 105.409L72.8809 105.471L72.9281 105.828L73.4527 106.362L73.4213 106.091L73.2954 104.983L73.1694 103.875L73.0278 102.667V102.535L71.9261 92.8743L71.8998 92.6728L71.2913 91.5495L70.8244 90.643L65.363 80.5716L64.9433 79.7969L64.5236 79.0221L62.4933 75.2725L60.206 79.0221L59.7338 79.7969L59.2616 80.5716L52.8874 91.0614L50.4112 115.853L50.3692 116.248L41.4821 205.419H42.0434H42.0802L65.6883 206.031L82.3819 206.457L84.9473 206.527L83.7984 196.781ZM72.6973 104.301L72.734 104.34L72.5819 103.209L72.5189 102.729V102.659L71.4067 92.9672L70.8244 91.9213L64.6758 80.5716L64.2561 79.7969H63.5846L64.0042 80.5716L68.0963 88.1174L68.878 89.5662L70.9136 93.3236L71.9628 102.52L72.0887 103.627L72.2146 104.735L72.8232 105.409L72.6973 104.301ZM72.6973 104.301L72.734 104.34L72.5819 103.209L72.5189 102.729V102.659L71.4067 92.9672L70.8244 91.9213L64.6758 80.5716L64.2561 79.7969H63.5846L64.0042 80.5716L68.0963 88.1174L68.878 89.5662L70.9136 93.3236L71.9628 102.52L72.0887 103.627L72.2146 104.735L72.8232 105.409L72.6973 104.301ZM72.6973 104.301L72.734 104.34L72.5819 103.209L72.5189 102.729V102.659L71.4067 92.9672L70.8244 91.9213L64.6758 80.5716L64.2561 79.7969H63.5846L64.0042 80.5716L68.0963 88.1174L68.878 89.5662L70.9136 93.3236L71.9628 102.52L72.0887 103.627L72.2146 104.735L72.8232 105.409L72.6973 104.301ZM72.6973 104.301L72.734 104.34L72.5819 103.209L72.5189 102.729V102.659L71.4067 92.9672L70.8244 91.9213L64.6758 80.5716H64.0042L68.0963 88.1174L68.878 89.5662L70.9136 93.3236L71.9628 102.52L72.0887 103.627L72.2146 104.735L72.8232 105.409L72.6973 104.301Z" fill="black"/>
<path d="M66.386 359.892C55.4791 358.962 49.6977 358.048 49.1888 357.165L49.0471 356.514C49.1206 355.437 50.4846 335.596 50.4846 335.596L51.5339 335.751C51.5339 335.751 50.3535 352.88 50.1279 356.165C51.7018 356.808 59.461 357.715 66.449 358.334L66.386 359.892Z" fill="black"/>
<path d="M69.5915 92.8356L69.4918 93.6104L69.3922 94.3851L63.0022 92.5955L61.8428 92.2701L60.6781 91.9447H60.5732L56.4811 90.7981C56.3552 90.7626 56.2425 90.6602 56.1642 90.5104C56.0859 90.3605 56.0475 90.1735 56.0562 89.9846C56.0649 89.7965 56.1198 89.6195 56.2106 89.4868C56.3014 89.3542 56.4218 89.275 56.5493 89.2641L61.5805 88.8535L63.679 88.6831L59.7023 87.7224L57.4569 87.1801L57.5461 86.4054L57.6301 85.6307L68.0911 88.164L68.5895 88.288C68.7136 88.3177 68.8264 88.4122 68.9073 88.5544C68.9882 88.6966 69.0318 88.877 69.0302 89.0627C69.0199 89.2574 68.9643 89.4408 68.8728 89.5818C68.7808 89.7131 68.6596 89.7902 68.5318 89.7987L63.8102 90.1783L60.8775 90.4185L67.0419 92.1461L69.5915 92.8356Z" fill="#E5D1B8"/>
<path d="M60.4631 117.573L59.7023 117.526L58.9521 117.48L51.3608 116.984H50.8677H50.8309C50.7147 116.965 50.6061 116.889 50.5225 116.768C50.4389 116.647 50.3849 116.489 50.3693 116.318C50.3667 116.282 50.3667 116.245 50.3693 116.209C50.3713 116.11 50.3874 116.012 50.4165 115.922C50.4543 115.782 50.5192 115.661 50.6031 115.574C50.687 115.487 50.7863 115.439 50.8886 115.434H50.9673H51.492L57.8819 115.822L58.6321 115.868L59.3928 115.915L60.4631 117.573Z" fill="#E5D1B8"/>
<path d="M64.6234 123.956H63.1754C58.905 123.956 54.325 123.956 52.1268 123.91C51.9946 123.91 51.8672 123.837 51.7699 123.705C51.6727 123.573 51.6128 123.391 51.6022 123.197C51.5923 123.006 51.6309 122.816 51.7103 122.664C51.7898 122.512 51.9046 122.41 52.0324 122.376L60.7097 120.16L61.3287 119.997L61.953 119.842L62.8239 121.19L62.2049 121.345L61.5806 121.508L58.118 122.407H63.6161L64.6234 123.956Z" fill="#E5D1B8"/>
<path d="M65.6253 125.506L65.0062 125.661L64.3819 125.824L51.4132 129.147H51.324C51.2551 129.156 51.1857 129.144 51.1198 129.113C51.054 129.082 50.9928 129.033 50.94 128.967C50.8871 128.901 50.8436 128.82 50.8118 128.73C50.78 128.639 50.7606 128.54 50.7548 128.438C50.7489 128.336 50.7567 128.234 50.7777 128.137C50.7986 128.039 50.8323 127.949 50.8769 127.871C50.9215 127.793 50.976 127.729 51.0375 127.682C51.0989 127.635 51.1659 127.606 51.2348 127.598L61.7903 124.909L63.4953 124.475L64.1196 124.321L64.7439 124.166L65.6253 125.506Z" fill="#E5D1B8"/>
<path d="M70.4992 143.084L75.2523 143.557L75.2155 144.332L75.1841 145.106L50.8047 142.689L50.7995 141.14L59.1148 140.078H59.12L66.8635 139.087L52.3839 138.297H52.3786L49.2571 138.126L48.7272 138.095H48.6957L48.7167 137.328L48.7325 136.553L48.8794 136.561L49.4092 136.592L72.1517 137.824L72.9019 137.863L72.9072 137.87H72.9439L73.6469 137.909L75.3992 138.002L75.4254 139.544L63.081 141.124L57.6878 141.814L70.4939 143.084H70.4992Z" fill="#E5D1B8"/>
<path d="M62.4409 161.267L56.0405 162.615L72.6186 163.188H72.6344L77.6813 163.366L77.6708 164.141L77.6603 164.916L49.6873 163.947L49.6243 162.406L58.5219 160.531H58.5324L69.2977 158.253L50.3325 158.981H50.3273L47.1638 159.105L46.9277 159.113L46.9172 158.338L46.9015 157.564L47.3212 157.548L78.1167 156.371L78.3108 156.363L78.4 157.905L78.2951 157.928L62.4409 161.267Z" fill="#E5D1B8"/>
<path d="M62.5931 175.406C59.183 175.91 55.9565 176.398 53.2442 176.808C58.8787 176.855 66.6799 176.878 73.7413 176.886H79.6329V178.435C76.27 178.435 47.1691 178.435 45.2647 178.187H45.1912L44.7453 178.079V177.413C44.7453 177.196 44.7453 177.041 44.8765 176.909C45.0461 176.755 45.2354 176.655 45.4326 176.615C46.1461 176.398 47.615 176.165 50.6421 175.685C52.3838 175.406 54.5401 175.081 57.0845 174.693L62.5721 173.919L66.6484 173.322L49.9653 173.787L45.7159 173.903H45.1912H45.1178V172.354H45.3329H45.8575L79.8322 171.408H79.9582L80.0159 172.958C74.7696 173.733 68.4164 174.631 62.614 175.484L62.5931 175.406Z" fill="#E5D1B8"/>
<path d="M43.8376 200.182L43.7274 198.648L76.0758 191.086L44.7819 190.281L44.761 188.731L81.406 185.834L81.4637 187.383L59.5554 189.111L82.0985 189.7L82.172 191.234L54.2829 197.749L80.9129 195.495L80.9758 197.044L43.8376 200.182Z" fill="black"/>
<path d="M148.563 310.898L143.8 318.134L143.065 319.25L139.839 324.154C139.839 324.154 101.93 282.218 75.3573 253.863L61.654 346.536L45.1598 345.373C45.1598 345.373 44.0686 209.618 41.9701 205.303L43.544 185.16H44.0424H44.567L81.0389 184.099L81.2383 183.812L81.7 183.153L82.062 182.634L82.2036 182.905L148.563 310.898Z" fill="url(#paint0_linear_87_5774)"/>
<path d="M26.7552 17.0439H25.7067V65.8517H26.7552V17.0439Z" fill="#F9B572"/>
<path d="M214.572 16.2693C211.919 16.2717 209.329 17.4619 207.144 19.6826C204.959 21.9034 203.281 25.0504 202.332 28.7083C201.383 32.3662 201.208 36.3631 201.829 40.1714C202.45 43.9797 203.838 47.4205 205.81 50.0396L194.741 71.5848L195.161 72.0496L195.58 72.5145L206.597 51.0235C208.252 52.8919 210.184 54.1513 212.234 54.6977C214.284 55.244 216.393 55.0615 218.385 54.1652C220.378 53.2689 222.197 51.6847 223.693 49.5436C225.189 47.4025 226.317 44.7662 226.986 41.8529C227.654 38.9396 227.843 35.833 227.537 32.7904C227.231 29.7478 226.438 26.8567 225.225 24.3563C224.012 21.8559 222.413 19.8182 220.56 18.4119C218.707 17.0056 216.655 16.2711 214.572 16.2693ZM214.572 53.4562C212.185 53.4562 209.852 52.4111 207.868 50.4532C205.884 48.4952 204.337 45.7123 203.424 42.4564C202.511 39.2004 202.272 35.6177 202.737 32.1612C203.203 28.7047 204.352 25.5297 206.04 23.0377C207.727 20.5457 209.877 18.8487 212.218 18.1611C214.558 17.4736 216.984 17.8265 219.189 19.1751C221.394 20.5238 223.279 22.8076 224.605 25.7379C225.93 28.6682 226.638 32.1132 226.638 35.6375C226.638 40.3633 225.367 44.8955 223.104 48.2372C220.841 51.5788 217.772 53.4562 214.572 53.4562Z" fill="#F9B572"/>
<path d="M129.1 129.418L91.5628 134.043L91.4159 133.904L82.4134 125.281L81.9727 124.863L81.5267 124.429L82.256 123.306L82.6967 123.732L83.1478 124.15L91.8304 132.479L129.016 127.877L129.1 129.418Z" fill="black"/>
<path d="M136.497 146.176C136.173 146.09 135.88 145.841 135.668 145.471C133.638 142.627 126.503 134.082 126.429 133.997L127.09 132.796C127.342 133.091 132.337 139.102 135.138 142.682C134.53 141.132 133.685 139.064 132.872 137.189L131.712 134.508L133.575 136.097C133.643 136.151 139.839 141.403 143.244 142.132C142.163 140.729 139.178 137.956 136.486 135.725L134.388 133.966L136.806 134.276C139.914 134.539 143.031 134.347 146.113 133.703H146.203C144.497 132.819 140.091 131.526 136.035 130.604L134.252 130.185L135.904 129.124C138.448 127.414 140.85 125.275 143.06 122.748C143.143 122.649 143.222 122.543 143.296 122.43C142.221 121.989 137.976 122.732 134.136 123.794C133.975 123.925 133.795 124.002 133.612 124.019C133.517 124.035 133.421 124.021 133.33 123.977C133.239 123.933 133.156 123.86 133.087 123.763L132.347 122.732L133.344 122.446L133.79 122.314C134.141 122.027 134.928 121.175 136.413 118.704C136.49 118.582 136.562 118.452 136.628 118.317C135.511 118.208 131.503 120.052 128.113 121.996L127.73 120.555C133.68 117.131 137.011 116.07 137.635 117.402C138.066 118.309 137.41 119.386 137.2 119.727C136.702 120.54 136.277 121.199 135.904 121.733C141.114 120.432 143.957 120.447 144.377 121.78C144.692 122.779 143.952 123.654 143.711 123.941C141.881 126.053 139.916 127.897 137.845 129.449C147.871 131.89 147.86 133.215 147.855 133.865C147.855 134.934 146.848 135.136 146.244 135.26C143.8 135.753 141.335 135.986 138.868 135.957C145.022 141.295 144.77 142.457 144.639 142.984C144.445 143.898 143.632 143.759 143.364 143.759C140.909 143.379 137.069 140.66 134.829 138.924C137.483 145.246 137.184 145.61 136.854 146.021C136.75 146.129 136.624 146.184 136.497 146.176Z" fill="black"/>
<path d="M86.3008 118.44L82.6389 124.072L81.8992 125.211L76.5585 133.423L76.1074 134.121L75.6509 134.818L73.6469 137.909L73.159 138.653L72.9229 139.017L72.6711 138.63L72.1517 137.824L64.382 125.854L63.5059 124.499L63.1754 123.995L62.1681 122.438L61.5857 121.547L60.7149 120.199L58.9521 117.48L57.9029 115.86L53.9996 109.848L53.5327 109.128L53.3858 108.903L53.0658 108.415L52.3313 107.276L51.8697 106.564L51.8329 106.509L51.8802 106.44H51.8854L52.2107 105.975L52.4992 105.572L52.5937 105.44L54.4141 108.245L54.5872 108.516L54.881 108.965L55.3479 109.686L59.4138 115.953L60.463 117.572L61.9582 119.881L62.8291 121.229L63.616 122.438L64.6233 123.987L64.7545 124.189L65.6253 125.537L72.9229 136.786L75.4358 132.92L75.887 132.223L76.3434 131.525L81.0021 124.351L81.7418 123.22L84.727 118.626L75.4621 108.338L75.4463 108.322L73.437 106.091L72.8809 105.471L72.8232 105.409L72.2146 104.735L71.3857 103.813L70.8873 103.256L70.7194 103.077L70.0584 102.341H70.0479L60.6676 91.9136L60.6257 91.867L60.9404 91.2473L60.9614 91.2085L61.2552 90.6275L62.0474 91.5107L62.0526 91.5184L62.997 92.5643L63.0022 92.5721L71.9628 102.52L72.5714 103.194L72.5819 103.201V103.209L73.1852 103.875L73.2062 103.899L73.8305 104.588V104.596L76.0916 107.106L76.1178 107.129L77.7862 108.989L78.2164 109.461L86.3008 118.44Z" fill="black"/>
<path d="M73.0119 98.3672L73.0222 98.428L72.9964 98.39L73.0119 98.3672Z" fill="black"/>
<path d="M86.9305 79.5489L86.7678 79.7968L86.2537 80.5715L81.3852 87.9082L81.0074 88.4815L80.6297 89.047L79.7221 88.2568L80.0998 87.6835L80.4776 87.118L84.8162 80.5715L85.3304 79.7968L85.8445 79.022L86.196 78.4952L86.9305 79.5489Z" fill="black"/>
<path d="M81.385 87.9083L80.4774 87.1336L76.1598 83.3529L70.8243 90.6431L70.5988 90.953L70.8348 91.8904L71.4067 94.1681L72.5189 102.62V102.69L72.5818 103.17L72.734 104.302L72.8809 105.433L72.9281 105.789L73.4527 106.324L75.4305 108.284L77.4451 110.282L77.7651 109.911L78.1848 109.407L90.0519 95.4619L81.385 87.9083ZM76.1388 107.129L73.9196 104.929L73.8777 104.619L73.0697 98.4601V98.3981L72.3982 93.8427L71.8159 91.4178L76.2962 85.2587L79.722 88.2569L80.6296 89.0317L88.2367 95.6943L77.4241 108.462L76.1388 107.129Z" fill="black"/>
<defs>
<linearGradient id="paint0_linear_87_5774" x1="95.2668" y1="182.634" x2="95.2668" y2="346.536" gradientUnits="userSpaceOnUse">
<stop stop-color="#738961"/>
<stop offset="1" stop-color="#7FB04F"/>
</linearGradient>
</defs>
</svg>
