<svg width="245" height="360" viewBox="0 0 245 360" fill="none" xmlns="http://www.w3.org/2000/svg">
<path d="M233.179 220.46C227.403 208.924 220.012 201.162 211.982 198.202C203.952 195.243 195.662 197.223 188.207 203.883L183.492 143.706L200.487 169.184L200.744 168.146C201.001 167.117 207.008 142.736 203.487 125.081C202.118 118.209 199.472 113.298 195.621 110.522L195.301 110.289L183.832 137.659L184.167 102.718L166.852 99.8065L166.765 101.748L183.555 104.659L163.487 167.262L164.303 168.311L183.264 109.105L182.875 138.3L182.39 141.076L182.254 141.881L177.131 171.727L130.974 187.586L123.264 190.226L122.778 190.401L122.292 190.566L112.275 194.002L111.086 194.41L109.901 194.817L86.1815 202.96L65.3269 210.104H65.2977L64.3557 210.453L42.394 204.63L0 261.128L0.534108 262.739L42.6222 206.571L63.8702 212.268V214.608L50.0415 258.109C44.3861 251.572 37.6985 249.578 31.335 252.533C24.9715 255.488 19.4084 263.17 15.7739 274.022C12.1394 284.873 10.7056 298.082 11.7633 310.968C12.8209 323.855 16.2909 335.455 21.4695 343.416C26.648 351.378 33.1475 355.104 39.6498 353.84C46.1521 352.575 52.1704 346.415 56.4844 336.608C60.7983 326.801 63.0848 314.082 62.8802 301.029C62.6756 287.977 59.9952 275.568 55.3826 266.32L63.8702 248.85V260.089L63.8945 260.924L64.38 279.21L88.1238 291.274L92.9793 293.739L94.1544 294.332L100.112 297.36L122.016 308.483L122.501 308.735L126.871 267.233L134.485 267.999L142.322 268.786L160.982 270.63H161.346L176.267 182.928L176.587 181.045L182.681 145.521L187.318 204.727C179.601 212.101 173.257 224.192 169.205 239.251C165.154 254.31 163.604 271.555 164.781 288.491C165.957 305.428 169.8 321.176 175.751 333.458C181.702 345.739 189.454 353.917 197.885 356.808C206.316 359.699 214.988 357.153 222.647 349.538C230.306 341.923 236.554 329.634 240.487 314.45C244.42 299.266 245.834 281.974 244.525 265.077C243.216 248.18 239.25 232.554 233.203 220.46H233.179ZM195.607 112.599C199.006 115.239 201.361 119.684 202.589 125.838C205.546 140.678 201.234 161.371 200.127 166.253L183.531 141.377L195.607 112.599ZM37.1645 314.306C35.8042 314.307 34.4867 313.355 33.4403 311.618L33.183 311.152C32.1949 309.296 31.5616 306.809 31.3922 304.12C31.2228 301.431 31.5278 298.708 32.2548 296.42C32.9818 294.132 34.0852 292.423 35.3749 291.586C36.6646 290.75 38.0599 290.838 39.3204 291.837C39.4709 291.954 39.6215 292.089 39.7671 292.235C39.9128 292.381 40.0536 292.546 40.1944 292.711C40.4115 292.976 40.6191 293.271 40.8159 293.594C40.943 293.794 41.0645 294.008 41.1801 294.234C41.2995 294.455 41.4129 294.689 41.52 294.933C42.4705 297.071 42.9896 299.838 42.9767 302.698C42.9715 305.775 42.3574 308.723 41.2684 310.898C40.1794 313.073 38.704 314.299 37.1645 314.306ZM63.8702 245.996L54.6786 264.971L41.4957 292.196C41.2488 291.784 40.9875 291.408 40.714 291.07L50.8718 259.119L63.8702 218.218V245.996ZM121.768 306.318L101.18 295.865L88.9686 289.663L65.3269 277.628L64.8899 260.972L102.375 264.738L122.768 266.786L125.89 267.107L121.768 306.318ZM175.427 181.695L175.068 183.811L170.751 209.192L160.642 268.689L142.555 266.874L134.64 266.078L127.056 265.321L124.089 265.02L103.346 262.865L64.8413 258.983V212.239L65.3269 212.074L86.5166 204.805L112.217 195.982L113.397 195.574L114.587 195.167L122.205 192.556L122.691 192.381L123.176 192.216L133.101 188.809L176.748 173.833L175.427 181.695ZM204.925 292.167C203.418 292.167 201.945 291.274 200.692 289.601C199.439 287.927 198.463 285.549 197.886 282.766C197.309 279.984 197.159 276.922 197.453 273.968C197.746 271.014 198.472 268.3 199.538 266.17C200.603 264.041 201.96 262.59 203.438 262.003C204.916 261.415 206.448 261.717 207.84 262.869C209.232 264.022 210.422 265.974 211.259 268.478C212.096 270.982 212.543 273.927 212.543 276.939C212.54 280.976 211.737 284.846 210.309 287.701C208.881 290.556 206.944 292.162 204.925 292.167Z" fill="url(#paint0_linear_18_1787)"/>
<path d="M90.1445 344.394L74.0435 316.897L89.5522 292.778L90.1494 294.312L75.5827 316.975L90.7757 342.919L90.1445 344.394Z" fill="black"/>
<path d="M149.348 350.819H128.172L132.12 312.345L133.072 312.733L129.362 348.878H149.348V350.819Z" fill="black"/>
<path d="M84.9685 289.653L97.1803 295.855L96.6365 296.583L96.1024 297.311H96.0975L84.8035 312.54L81.8221 307.269L81.0792 305.959L78.5786 301.543L84.1188 291.226H84.1237L84.9685 289.653Z" fill="url(#paint1_linear_18_1787)"/>
<path d="M147.838 129.186L135.412 107.328L136.053 105.872L147.906 126.721L163.618 104.834L164.172 106.426L147.838 129.186Z" fill="black"/>
<path d="M173.727 116.753C173.223 116.598 172.744 116.209 172.329 115.617C168.163 110.764 166.648 109.551 166.629 109.541L166.978 107.736C167.041 107.736 168.556 108.959 172.805 113.948L172.853 113.996C171.554 110.863 170.175 107.867 168.721 105.018L167.114 101.825L165.774 101.515L166.677 100.961L166.386 100.379L166.837 100.864L167.988 100.165C167.988 100.165 169.183 99.3501 172.844 94.4195C171.241 95.7007 169.003 97.671 166.925 99.5927L164.24 102.087L166.386 98.0107C166.386 98.0107 167.634 95.5066 168.042 89.2754C168.047 89.1171 168.047 88.9582 168.042 88.7998C166.939 89.6539 163.599 97.8748 163.502 99.5345C163.5 99.4381 163.489 99.3433 163.468 99.2564C163.447 99.1695 163.417 99.0923 163.38 99.0298L162.73 100.466C162.302 99.6995 162.628 98.4086 162.967 97.2633C163.56 95.2639 166.993 85.8686 168.454 86.878C168.765 87.0916 169.105 87.7225 168.988 89.5278C168.847 91.9124 168.52 94.2379 168.017 96.4189C175.053 90.0034 175.271 90.7701 175.505 91.566C175.791 92.5366 175.242 93.4295 174.305 94.7107C172.164 97.6224 170.712 99.4278 169.765 100.486C177.151 102.349 177.141 103.349 177.131 104.242C177.131 105.407 176.422 105.61 175.437 105.756C173.792 106.07 172.137 106.106 170.489 105.863C174.781 114.647 174.402 115.637 174.169 116.238C174.12 116.385 174.054 116.508 173.978 116.597C173.901 116.686 173.816 116.739 173.727 116.753ZM167.944 102.019L169.304 103.465C169.304 103.465 170.45 104.485 174.645 103.97C173.004 103.349 170.46 102.611 168.09 102.029L167.944 102.019Z" fill="black"/>
<path d="M143.375 151.917L131.445 115.87L132.251 114.802L143.832 149.792L162.666 143.201L162.831 145.113L143.375 151.917Z" fill="black"/>
<path d="M125.672 38.3196C125.201 38.3153 124.731 38.2243 124.269 38.0479C122.45 37.3321 120.838 35.2453 119.768 32.2196C118.698 29.194 118.25 25.4613 118.519 21.7948C118.788 18.1283 119.752 14.8089 121.211 12.5241C122.671 10.2393 124.514 9.1643 126.359 9.52165C128.205 9.879 129.91 11.6414 131.123 14.4437C132.336 17.2461 132.964 20.8736 132.875 24.5751C132.787 28.2765 131.99 31.7682 130.649 34.3269C129.308 36.8855 127.526 38.3152 125.672 38.3196ZM125.672 11.2014C124.532 11.2155 123.416 11.8461 122.441 13.0263C121.466 14.2064 120.669 15.892 120.135 17.9043C119.601 19.9166 119.349 22.1804 119.407 24.4556C119.464 26.7307 119.829 28.9323 120.462 30.8267C121.458 33.2698 122.876 34.8792 124.436 35.338C125.996 35.7968 127.585 35.0718 128.891 33.3057C130.197 31.5397 131.125 28.8605 131.493 25.7953C131.86 22.7302 131.641 19.5011 130.877 16.7435C130.298 15.0357 129.519 13.6375 128.607 12.6713C127.696 11.7051 126.679 11.2004 125.648 11.2014H125.672Z" fill="black"/>
<path d="M119.758 34.4078L107.459 48.5299L81.6367 180.704L82.1222 180.937L109.901 194.817L111.071 195.399L112.236 195.981L122.919 201.32L123.215 192.216L123.244 191.245L123.278 190.274L123.501 183.354L123.705 177.055L123.734 176.084V176.016L123.768 175.046L125.186 131.078V130.991L125.458 122.537L124.565 120.421L124.458 123.75V123.925L124.244 130.525V130.729L123.798 144.56V145.229L123.254 162.108L123.186 164.127L122.792 174.541L122.758 175.512V175.696L122.729 176.667L122.53 182.752L122.278 190.517L122.249 191.488L122.215 192.458L122.011 198.777L114.596 195.069L113.431 194.487L112.266 193.904L84.4432 179.996L82.9622 179.258L86.8467 159.487L86.9826 158.769L87.0263 158.565L87.2011 157.663L99.7188 93.6039L99.9227 92.5557L108.279 49.7916L119.447 36.9508L126.507 60.2449L126.468 61.4872V61.7202L126.308 66.6896L126.245 68.6307L127.153 70.6301L127.216 68.689L127.493 60.0604V59.7596L119.758 34.4078Z" fill="#E5D1B8"/>
<path d="M140.622 99.2436L126.769 127.245L104.875 77.3957L105.604 76.1145L121.617 112.58L122.263 114.045L126.808 124.392L139.282 99.1854L134.232 88.0431L133.863 87.2278L117.553 51.2287L118.272 49.9281L134.679 86.1213L134.893 86.6066L140.622 99.2436Z" fill="#E5D1B8"/>
<path d="M124.851 132.204L98.0486 124.071L98.1942 122.149L109.119 125.469L94.6691 119.276L94.873 117.374L125.026 130.292L124.851 132.204Z" fill="#E5D1B8"/>
<path d="M121.214 151.801L92.0179 136.019L92.2267 134.126L123.574 144.648L123.414 146.569L101.85 139.329L121.467 149.937L121.214 151.801Z" fill="#E5D1B8"/>
<path d="M123.429 164.244L103.084 156.11L103.278 154.208L108.216 156.188L91.8092 147.491L92.0568 145.608L123.647 162.351L123.429 164.244Z" fill="#E5D1B8"/>
<path d="M123.652 173.28L91.5858 162.283L91.7509 160.371L108.245 166.029L86.0504 155.576L86.2738 153.683L123.846 171.377L123.652 173.28Z" fill="#E5D1B8"/>
<path d="M124.686 125.372L98.84 93.7984L99.345 92.1484L118.17 115.142L103.341 91.8184L103.938 90.2946L125.24 123.78L124.686 125.372Z" fill="#E5D1B8"/>
<path d="M112.372 88.9164L111.756 87.412L119.719 74.3382L110.882 85.1699L110.372 83.5102L125.211 65.3311L125.774 66.9131L112.372 88.9164Z" fill="#E5D1B8"/>
<path d="M116.927 98.4666L116.296 96.9913L124.104 83.7428L115.189 94.7298L114.684 93.0799L129.042 75.386L129.61 76.9487L116.927 98.4666Z" fill="#E5D1B8"/>
<path d="M134.893 86.6064L134.232 88.0429L122.263 114.045L121.753 115.151L121.04 113.831L121.617 112.579L129.406 95.662L119.976 108.522L119.432 106.911L133.863 87.2276L134.679 86.1211L134.893 86.6064Z" fill="#E5D1B8"/>
<path d="M126.512 119.965L125.851 118.548L132.018 106.989L126.221 115.268L125.905 114.365H125.536V113.87L125.74 113.569L137.388 96.9431L138 98.4378L126.512 119.965Z" fill="#E5D1B8"/>
<path d="M126.779 63.5744L115.291 43.9588L115.922 42.4835L120.117 49.6561L116.451 41.9788L117.15 40.6394L127.444 62.167L126.779 63.5744Z" fill="#E5D1B8"/>
<path d="M107.92 78.3562L107.196 77.0654L115.451 58.4689L106.361 70.4071L105.827 68.7863L121.035 48.8019L107.92 78.3562Z" fill="#E5D1B8"/>
<path d="M126.434 34.5244L125.72 33.2044L130.066 23.78C125.9 26.3618 120.802 29.6035 120.394 29.9723L120 30.4965L119.748 29.7006C119.554 29.1376 119.651 28.73 119.889 28.332H119.913C120.005 28.1767 120.112 28.0215 120.229 27.8467L121.2 26.3909L124.176 21.9844L124.662 21.2953L119.321 26.255L118.913 24.4982L132.994 11.4536L129.11 17.1606C127.201 19.9753 124.74 23.6053 122.928 26.2841C125.444 24.6632 129.008 22.4503 131.523 20.8974L133.242 19.8394L126.434 34.5244Z" fill="black"/>
<path d="M151.261 199.165L142.555 266.835L142.428 267.795L142.307 268.756L134.271 331.194L131.542 327.652L130.668 326.516L129.483 324.982L134.47 267.97L134.558 267.009L134.64 266.039L136.155 248.714L138.816 218.305L126.526 219.761L90.2359 224.041L86.5165 204.804L86.3417 203.882L86.162 202.96L82.1028 181.947V180.035H82.2873L82.297 180.045H82.3067L84.4237 180.093H84.4335L108.022 180.705H108.051L119.432 180.996L119.452 181.006L122.525 182.762L123.001 183.034L123.482 183.306L130.969 187.586H130.974L132.042 188.198L133.12 188.809L151.261 199.165Z" fill="url(#paint2_linear_18_1787)"/>
<path d="M174.363 152.509C173.902 152.49 173.442 152.419 172.985 152.295C166.813 150.878 162.938 149.432 162.899 149.384L163.079 147.443C163.113 147.443 166.964 148.889 173.091 150.296C171.8 149.325 169.867 148.005 168.11 146.938L168.352 145.055C168.386 145.055 171.504 146.326 176.145 143.832C174.529 143.667 171.659 143.754 168.838 144.007C168.476 144.101 168.11 144.133 167.745 144.104V142.163L168.678 142.075C170.788 141.571 172.726 139.491 174.101 136.252C174.226 135.986 174.331 135.685 174.412 135.359C173.635 134.844 170.095 136.688 166.769 139.008C166.431 139.339 166.074 139.59 165.706 139.755L165.449 137.892C165.759 137.659 166.08 137.426 166.42 137.203C166.873 136.767 167.249 136.067 167.498 135.194C167.842 133.874 167.789 132.156 167.337 130.098C167.056 128.807 166.755 128.778 166.653 128.759H166.614C165.342 128.759 162.87 135.436 161.506 140.231L160.661 139.26C161.263 137.135 164.376 126.555 166.701 126.808C167.158 126.856 167.794 127.322 168.231 129.302C168.78 131.816 168.843 134.01 168.415 135.825C171.61 133.786 174.655 132.447 175.276 134.252C175.713 135.495 175.068 136.999 174.854 137.494C174.121 139.222 173.238 140.669 172.246 141.765C178.073 141.512 178.151 142.56 178.214 143.298C178.311 144.473 177.617 144.968 176.757 145.453C175.143 146.441 173.482 147.082 171.8 147.365C175.577 149.966 175.495 150.781 175.417 151.519C175.339 152.257 175.019 152.509 174.363 152.509Z" fill="black"/>
<path d="M116.31 17.3062C116.31 17.3062 116.029 28.3903 121.074 30.5159C126.119 32.6414 128.935 17.3062 128.935 17.3062L134.762 19.2474C134.762 19.2474 137.893 4.77591 131.363 1.29151C124.832 -2.1929 120.195 0.806213 116.31 17.3062Z" fill="black"/>
<path d="M57.2181 120.489H57.0821L37.6938 118.247L37.6307 119.674L33.7171 204.63H76.9317L79.8936 124.217L79.9179 123.498V123.159L57.2181 120.489ZM77.796 124.857L57.354 163.865L39.1845 120.266L77.796 124.857ZM76.0431 202.688H34.7708L38.495 121.732L57.2763 166.777L78.8691 125.537L76.0431 202.688Z" fill="#F9B572"/>
<path d="M44.8606 30.7687L44.7392 32.1664L37.3587 116.307L79.9906 123.314L80.4422 123.382L86.7253 43.0079L86.7496 42.6779L44.8606 30.7687ZM84.5549 43.959L62.5834 79.5407L46.259 33.1273L84.5549 43.959ZM79.6216 121.257L38.4998 114.462L45.5306 34.3793L62.4135 82.336L85.6231 44.7646L79.6216 121.257Z" fill="#F9B572"/>
<path d="M245 360C242.587 360 3.7228 359.519 0.106008 360L0 358.038C3.67291 357.558 235.147 358.038 245 358.038V360Z" fill="black"/>
<defs>
<linearGradient id="paint0_linear_18_1787" x1="122.5" y1="99.8065" x2="122.5" y2="357.968" gradientUnits="userSpaceOnUse">
<stop stop-color="#738961"/>
<stop offset="1" stop-color="#7FB04F"/>
</linearGradient>
<linearGradient id="paint1_linear_18_1787" x1="87.8795" y1="289.653" x2="87.8795" y2="312.54" gradientUnits="userSpaceOnUse">
<stop stop-color="#738961"/>
<stop offset="1" stop-color="#7FB04F"/>
</linearGradient>
<linearGradient id="paint2_linear_18_1787" x1="116.682" y1="180.035" x2="116.682" y2="331.194" gradientUnits="userSpaceOnUse">
<stop stop-color="#738961"/>
<stop offset="1" stop-color="#7FB04F"/>
</linearGradient>
</defs>
</svg>
